<?xml version="1.0" encoding="utf-8"?>
<!-- Generator: Adobe Illustrator 16.0.0, SVG Export Plug-In . SVG Version: 6.00 Build 0)  -->
<!DOCTYPE svg PUBLIC "-//W3C//DTD SVG 1.1//EN" "http://www.w3.org/Graphics/SVG/1.1/DTD/svg11.dtd">
<svg version="1.1" id="Capa_1" xmlns="http://www.w3.org/2000/svg" xmlns:xlink="http://www.w3.org/1999/xlink" x="0px" y="0px"
	 width="120.382px" height="121.306px" viewBox="0 0 120.382 121.306" enable-background="new 0 0 120.382 121.306"
	 xml:space="preserve">
<linearGradient id="SVGID_1_" gradientUnits="userSpaceOnUse" x1="25.4067" y1="83.7061" x2="96.4585" y2="42.6843">
	<stop  offset="0" style="stop-color:#0E646A"/>
	<stop  offset="1" style="stop-color:#80D97B"/>
</linearGradient>
<circle fill="url(#SVGID_1_)" cx="60.932" cy="63.194" r="41.015"/>
<circle fill="none" stroke="#0E646A" stroke-width="2" stroke-miterlimit="10" cx="60.932" cy="63.194" r="51.293"/>
<g id="XMLID_105_">
	<path id="XMLID_109_" fill="#FFFFFF" d="M38.712,50.907l3.453,1.899l5.11,20.438l-2.408,1.898
		c-0.571,0.451-0.901,1.133-0.901,1.865v3.58c0,1.295,1.051,2.36,2.35,2.377l2.369,0.034c-0.119,0.372-0.182,0.765-0.182,1.169
		c0,2.102,1.707,3.811,3.811,3.811c2.098,0,3.811-1.709,3.811-3.811c0-0.364-0.049-0.723-0.154-1.066l15.787,0.223
		c-0.064,0.274-0.096,0.557-0.096,0.844c0,2.102,1.707,3.811,3.809,3.811c2.104,0,3.814-1.709,3.814-3.811
		c0-0.249-0.027-0.498-0.076-0.74l1.037,0.016c1.297,0,2.359-1.054,2.381-2.345c0.006-0.634-0.234-1.237-0.676-1.692
		c-0.443-0.454-1.035-0.71-1.666-0.721l-31.563-0.442v-0.082l1.668-1.318c0.162,0.022,0.307,0.036,0.461,0.036l25.813,0.238
		c1.619,0,3.004-1.102,3.363-2.678l3.348-14.566c0.422-1.855-0.742-3.709-2.598-4.136l0,0c-1.855-0.426-3.709,0.739-4.135,2.593
		l-2.727,11.855l-20.332-0.187L48.499,49.67c-0.232-0.928-0.849-1.726-1.687-2.186l-4.775-2.626
		c-1.669-0.919-3.77-0.306-4.688,1.362C36.433,47.888,37.043,49.991,38.712,50.907z M39.009,47.131
		c0.416-0.752,1.367-1.031,2.118-0.616l4.772,2.625c0.379,0.212,0.658,0.569,0.762,0.991l5.263,21.037
		c0.102,0.418,0.479,0.711,0.906,0.717l21.83,0.199c0.445-0.02,0.832-0.301,0.928-0.731l2.896-12.599
		c0.191-0.838,1.033-1.363,1.873-1.174c0.838,0.194,1.361,1.033,1.17,1.872l-3.346,14.562c-0.162,0.714-0.787,1.212-1.535,1.212
		L50.86,74.986c-0.129,0-0.27-0.022-0.428-0.071c-0.297-0.089-0.617-0.028-0.855,0.164l-2.388,1.88
		c-0.228,0.178-0.359,0.452-0.359,0.74v1.476c0,0.518,0.416,0.94,0.933,0.946l32.49,0.457c0.129,0.003,0.252,0.056,0.342,0.148
		c0.051,0.055,0.141,0.17,0.137,0.346c0,0.265-0.221,0.479-0.492,0.479l-2.463-0.035c-0.369,0-0.697,0.197-0.859,0.519
		c-0.164,0.321-0.131,0.706,0.086,0.993c0.256,0.341,0.387,0.734,0.387,1.141c0,1.061-0.859,1.918-1.92,1.918
		c-1.057,0-1.916-0.857-1.916-1.918c0-0.533,0.23-0.938,0.42-1.183c0.227-0.282,0.27-0.665,0.117-0.993
		c-0.156-0.325-0.482-0.535-0.846-0.539l-18.902-0.265c-0.01,0-0.012,0-0.018,0c-0.381,0-0.725,0.228-0.871,0.579
		c-0.15,0.355-0.066,0.768,0.207,1.037c0.367,0.366,0.57,0.85,0.57,1.363c0,1.061-0.861,1.918-1.918,1.918
		c-1.059,0-1.92-0.857-1.92-1.918c0-0.531,0.221-1.025,0.615-1.397c0.281-0.265,0.375-0.674,0.24-1.032
		c-0.141-0.359-0.482-0.602-0.867-0.606l-4.048-0.06c-0.258-0.002-0.476-0.221-0.476-0.484v-3.58c0-0.15,0.069-0.291,0.188-0.382
		l2.88-2.278c0.293-0.23,0.422-0.609,0.332-0.975l-5.355-21.426c-0.065-0.254-0.232-0.474-0.467-0.598l-3.812-2.1
		C38.868,48.834,38.593,47.887,39.009,47.131z"/>
	<path id="XMLID_106_" fill="#FFFFFF" d="M65.895,48.488h-4.494c-1.348,0-2.441,1.095-2.441,2.443v5.797h-1.387
		c-0.861,0-1.535,0.353-1.842,0.964c-0.307,0.612-0.186,1.358,0.328,2.053l5.709,7.659c0.473,0.636,1.158,1.002,1.877,1.002
		c0.721,0,1.406-0.366,1.879-1.002l5.709-7.662c0.516-0.691,0.633-1.438,0.324-2.05c-0.307-0.612-0.975-0.964-1.836-0.964h-1.389
		v-5.797C68.333,49.583,67.237,48.488,65.895,48.488z M69.709,58.62l-5.703,7.656c-0.225,0.301-0.496,0.301-0.721,0l-5.705-7.656
		h2.326c0.518,0,0.945-0.425,0.945-0.944v-6.744c0-0.303,0.246-0.553,0.549-0.553h4.494c0.299,0,0.547,0.25,0.547,0.553v6.744
		c0,0.52,0.424,0.944,0.945,0.944H69.709z"/>
</g>
</svg>
