<?xml version="1.0" encoding="utf-8"?>
<!-- Generator: Adobe Illustrator 16.0.0, SVG Export Plug-In . SVG Version: 6.00 Build 0)  -->
<!DOCTYPE svg PUBLIC "-//W3C//DTD SVG 1.1//EN" "http://www.w3.org/Graphics/SVG/1.1/DTD/svg11.dtd">
<svg version="1.1" id="Capa_1" xmlns="http://www.w3.org/2000/svg" xmlns:xlink="http://www.w3.org/1999/xlink" x="0px" y="0px"
	 width="120.382px" height="121.306px" viewBox="0 0 120.382 121.306" enable-background="new 0 0 120.382 121.306"
	 xml:space="preserve">
<linearGradient id="SVGID_1_" gradientUnits="userSpaceOnUse" x1="24.665" y1="81.1641" x2="95.7163" y2="40.1426">
	<stop  offset="0" style="stop-color:#0E646A"/>
	<stop  offset="1" style="stop-color:#80D97B"/>
</linearGradient>
<circle fill="url(#SVGID_1_)" cx="60.191" cy="60.653" r="41.015"/>
<circle fill="none" stroke="#0E646A" stroke-width="2" stroke-miterlimit="10" cx="60.191" cy="60.652" r="51.293"/>
<g id="XMLID_98_">
	<path id="XMLID_99_" fill="#FFFFFF" d="M84.447,50.152l-48.52,0.244c-0.41,0.002-0.763,0.291-0.851,0.692
		c-0.084,0.403,0.123,0.81,0.5,0.978l12.473,5.563l-0.955,13.469c-0.093,0.277-0.047,0.584,0.144,0.818
		c0.169,0.209,0.42,0.324,0.68,0.324c0.101,0,0.205-0.02,0.308-0.057c0.005-0.002,0.048-0.018,0.05-0.02l10.146-3.852l9.29,11.016
		c0.166,0.199,0.41,0.311,0.666,0.311c0.027,0,0.053,0,0.078-0.002c0.283-0.025,0.533-0.188,0.676-0.434l16.078-27.741
		c0.002-0.004,0.002-0.009,0.004-0.013c0.006-0.003,0.006-0.003,0.006-0.006c0.002-0.003,0.004-0.007,0.006-0.01
		c0.021-0.044,0.043-0.091,0.059-0.136c0-0.006,0-0.008,0.002-0.011c0.008-0.019,0.012-0.04,0.014-0.058
		c0.006-0.014,0.006-0.027,0.01-0.041c0-0.012,0.006-0.021,0.008-0.036c0-0.007,0.004-0.015,0.004-0.023
		c0.006-0.041,0.004-0.08,0-0.12c0-0.016,0.006-0.029,0.004-0.043c-0.004-0.007,0-0.013,0-0.018c-0.004-0.039-0.01-0.077-0.02-0.117
		c-0.006-0.007-0.006-0.018-0.006-0.025c-0.002-0.003-0.002-0.003-0.002-0.004c-0.004-0.027-0.02-0.055-0.025-0.081
		c-0.006-0.015-0.012-0.027-0.018-0.04c-0.002-0.006-0.004-0.012-0.008-0.018c-0.002-0.006-0.004-0.012-0.004-0.016
		c-0.021-0.045-0.047-0.088-0.078-0.129c-0.004-0.002-0.004-0.006-0.006-0.01c-0.008-0.012-0.02-0.021-0.027-0.03
		c0-0.003,0-0.009-0.006-0.012c-0.002-0.006-0.012-0.01-0.016-0.017c-0.053-0.059-0.109-0.111-0.174-0.154
		c-0.008-0.002-0.01-0.006-0.014-0.007c-0.066-0.042-0.137-0.073-0.211-0.095c-0.014-0.006-0.031-0.01-0.049-0.014
		c-0.006-0.001-0.012-0.005-0.021-0.008c-0.002,0-0.004-0.002-0.006-0.002c-0.041-0.008-0.076-0.011-0.117-0.013
		c-0.018-0.001-0.033-0.005-0.051-0.007c-0.004,0-0.006,0-0.014,0C84.453,50.152,84.453,50.152,84.447,50.152z M50.069,69.617
		l4.068-6.386l2.334,2.768l0.756,0.898L50.069,69.617z M73.839,51.951l-24.763,4.226l-9.093-4.055L73.839,51.951z M74.525,53.603
		L53.75,60.94c-0.002,0-0.002,0-0.002,0c-0.021,0.008-0.041,0.021-0.063,0.033c-0.035,0.014-0.074,0.031-0.107,0.053
		c-0.02,0.012-0.038,0.023-0.057,0.039c-0.012,0.012-0.031,0.023-0.046,0.037c-0.021,0.018-0.038,0.033-0.06,0.053
		c-0.021,0.021-0.041,0.047-0.06,0.072c-0.017,0.023-0.038,0.041-0.052,0.066l-4.238,6.644l0.72-10.112L74.525,53.603z
		 M82.511,52.636L68.244,77.254L55.52,62.167L82.511,52.636z"/>
</g>
</svg>
