<?xml version="1.0" encoding="utf-8"?>
<!-- Generator: Adobe Illustrator 16.0.0, SVG Export Plug-In . SVG Version: 6.00 Build 0)  -->
<!DOCTYPE svg PUBLIC "-//W3C//DTD SVG 1.1//EN" "http://www.w3.org/Graphics/SVG/1.1/DTD/svg11.dtd">
<svg version="1.1" id="Capa_1" xmlns="http://www.w3.org/2000/svg" xmlns:xlink="http://www.w3.org/1999/xlink" x="0px" y="0px"
	 width="120.382px" height="121.306px" viewBox="0 0 120.382 121.306" enable-background="new 0 0 120.382 121.306"
	 xml:space="preserve">
<linearGradient id="SVGID_1_" gradientUnits="userSpaceOnUse" x1="24.665" y1="81.1641" x2="95.7163" y2="40.1426">
	<stop  offset="0" style="stop-color:#0E646A"/>
	<stop  offset="1" style="stop-color:#80D97B"/>
</linearGradient>
<circle fill="url(#SVGID_1_)" cx="60.191" cy="60.653" r="41.015"/>
<circle fill="none" stroke="#0E646A" stroke-width="2" stroke-miterlimit="10" cx="60.191" cy="60.652" r="51.293"/>
<g id="XMLID_60_">
	<path id="XMLID_62_" fill="#FFFFFF" d="M62.611,49.427l-3.781-5.889c-0.208-0.324-0.566-0.52-0.951-0.52H41.486
		c-0.625,0-1.131,0.506-1.131,1.129v33.01c0,0.624,0.506,1.13,1.131,1.13h39.46c0.623,0,1.129-0.506,1.129-1.13V63.066
		c3.064-1.092,5.266-4.011,5.266-7.444c0-4.358-3.547-7.906-7.908-7.906c-1.848,0-3.547,0.643-4.895,1.711H62.611z M85.533,55.622
		c0,3.364-2.736,6.101-6.1,6.101s-6.098-2.736-6.098-6.101c0-3.363,2.734-6.098,6.098-6.098S85.533,52.259,85.533,55.622z
		 M42.617,76.027V45.278h14.645l3.782,5.89c0.208,0.322,0.567,0.519,0.95,0.519h10.592c-0.668,1.161-1.059,2.503-1.059,3.936
		c0,4.361,3.547,7.908,7.906,7.908c0.131,0,0.256-0.013,0.385-0.021v12.518H42.617z"/>
	<path id="XMLID_61_" fill="#FFFFFF" d="M77.9,57.379l-0.969-1.129c-0.242-0.285-0.67-0.316-0.955-0.073
		c-0.283,0.243-0.316,0.67-0.072,0.956l1.416,1.651c0.117,0.139,0.287,0.224,0.469,0.236c0.016,0.001,0.031,0.001,0.045,0.001
		c0.166,0,0.326-0.061,0.451-0.171l5.313-4.722c0.279-0.249,0.305-0.679,0.057-0.959c-0.25-0.28-0.678-0.306-0.957-0.056
		L77.9,57.379z"/>
</g>
</svg>
