<?xml version="1.0" encoding="utf-8"?>
<!-- Generator: Adobe Illustrator 16.0.0, SVG Export Plug-In . SVG Version: 6.00 Build 0)  -->
<!DOCTYPE svg PUBLIC "-//W3C//DTD SVG 1.1//EN" "http://www.w3.org/Graphics/SVG/1.1/DTD/svg11.dtd">
<svg version="1.1" id="Capa_1" xmlns="http://www.w3.org/2000/svg" xmlns:xlink="http://www.w3.org/1999/xlink" x="0px" y="0px"
	 width="120.382px" height="121.306px" viewBox="0 0 120.382 121.306" enable-background="new 0 0 120.382 121.306"
	 xml:space="preserve">
<linearGradient id="SVGID_1_" gradientUnits="userSpaceOnUse" x1="24.665" y1="81.1641" x2="95.7163" y2="40.1426">
	<stop  offset="0" style="stop-color:#0E646A"/>
	<stop  offset="1" style="stop-color:#80D97B"/>
</linearGradient>
<circle fill="url(#SVGID_1_)" cx="60.191" cy="60.653" r="41.015"/>
<circle fill="none" stroke="#0E646A" stroke-width="2" stroke-miterlimit="10" cx="60.191" cy="60.652" r="51.293"/>
<g id="XMLID_66_">
	<path id="XMLID_97_" fill="#FFFFFF" d="M51.023,52.852h17.753c0.336,0,0.607-0.271,0.607-0.606s-0.271-0.607-0.607-0.607H51.023
		c-0.336,0-0.607,0.272-0.607,0.607S50.688,52.852,51.023,52.852z"/>
	<path id="XMLID_96_" fill="#FFFFFF" d="M69.384,57.58c0-0.336-0.271-0.607-0.607-0.607H51.023c-0.336,0-0.607,0.271-0.607,0.607
		c0,0.334,0.271,0.606,0.607,0.606h17.753C69.113,58.187,69.384,57.914,69.384,57.58z"/>
	<path id="XMLID_81_" fill="#FFFFFF" d="M82.636,56.086L75.14,50.61v-1.319c0-2.643-2.234-4.791-4.979-4.791h-3.383l-6.051-4.42
		c-0.32-0.234-0.754-0.234-1.074,0l-6.052,4.42h-3.381c-2.746,0-4.98,2.148-4.98,4.791v1.319l-7.495,5.476
		c-0.233,0.17-0.372,0.443-0.373,0.732c0,0.052,0.009,0.1,0.019,0.15c-0.007,0.04-0.019,0.081-0.019,0.124v22.653
		c0,0.133,0.038,0.259,0.091,0.375c-0.094,0.208-0.117,0.441-0.04,0.664c0.125,0.37,0.47,0.617,0.86,0.617h43.814
		c0.391,0,0.736-0.249,0.863-0.618c0.074-0.223,0.051-0.457-0.043-0.663c0.053-0.116,0.092-0.242,0.092-0.375V57.093
		c0-0.043-0.012-0.08-0.018-0.122c0.01-0.053,0.018-0.106,0.018-0.162C83.005,56.523,82.867,56.256,82.636,56.086z M75.14,52.865
		l5.441,3.976l-5.246,4.038l-0.195,0.14V52.865z M60.191,41.941l3.501,2.559h-7.004L60.191,41.941z M47.063,49.291
		c0-1.638,1.416-2.97,3.158-2.97h19.941c1.74,0,3.158,1.332,3.158,2.97v13.05l-7.162,5.201c-0.121,0.028-0.24,0.072-0.344,0.151
		l-5.568,4.206l-5.83-4.218v-0.001l0,0l-7.354-5.34V49.291z M45.24,52.865v7.982l-5.422-4.021L45.24,52.865z M39.193,58.879
		l13.141,9.541l-13.141,9.54V58.879z M40.946,79.582l12.956-10.025l5.822,4.212c0.324,0.234,0.763,0.229,1.082-0.011l5.552-4.195
		l13.057,10.02H40.946z M81.187,77.96l-13.141-9.54l13.141-9.541V77.96z"/>
</g>
</svg>
