<?xml version="1.0" encoding="utf-8"?>
<!-- Generator: Adobe Illustrator 16.0.0, SVG Export Plug-In . SVG Version: 6.00 Build 0)  -->
<!DOCTYPE svg PUBLIC "-//W3C//DTD SVG 1.1//EN" "http://www.w3.org/Graphics/SVG/1.1/DTD/svg11.dtd">
<svg version="1.1" xmlns="http://www.w3.org/2000/svg" xmlns:xlink="http://www.w3.org/1999/xlink" x="0px" y="0px"
	 width="27.229px" height="27.333px" viewBox="0 0 27.229 27.333" enable-background="new 0 0 27.229 27.333" xml:space="preserve">
<g id="refer" display="none">
</g>
<g id="app">
	<g>
		<g>
			<path fill-rule="evenodd" clip-rule="evenodd" fill="#A1C7C6" d="M12.303,25.288c-0.456-0.303-0.517-0.683-0.38-1.172
				c0.395-1.416,1.209-2.578,2.441-3.508c0.218-0.164,0.427-0.336,0.674-0.53c1.114,0.845,2.355,1.405,3.857,1.4
				c1.48-0.005,2.715-0.534,3.828-1.395c1.566,1.061,2.717,2.362,3.159,4.128c0.125,0.497,0.004,0.835-0.477,1.077
				C21.038,25.288,16.671,25.288,12.303,25.288z"/>
			<path fill-rule="evenodd" clip-rule="evenodd" fill="#A1C7C6" d="M14.582,2.045c0.912,0.209,1.846,0.363,2.732,0.64
				c1.194,0.373,2.229,1.015,3.143,1.809C21.11,5.062,21.2,5.747,20.694,6.27c-0.5,0.516-1.301,0.516-1.964-0.04
				c-1.589-1.333-3.452-1.941-5.609-1.804c-0.975,0.061-1.89,0.306-2.928,0.814c0.34,0.252,0.623,0.448,0.889,0.661
				c0.315,0.253,0.423,0.581,0.264,0.934c-0.158,0.353-0.479,0.504-0.905,0.502C9.17,7.331,7.899,7.342,6.628,7.331
				C5.976,7.326,5.67,7.038,5.665,6.432c-0.01-1.134,0.004-2.27-0.006-3.405C5.655,2.648,5.777,2.331,6.175,2.188
				c0.4-0.144,0.781-0.064,1.085,0.239c0.355,0.355,0.715,0.708,1.089,1.078c1.398-0.84,2.879-1.215,4.41-1.46
				C13.367,2.045,13.974,2.045,14.582,2.045z"/>
			<path fill-rule="evenodd" clip-rule="evenodd" fill="#A1C7C6" d="M1.935,25.288c-0.557-0.318-0.718-0.732-0.598-1.345
				c0.271-1.39,0.92-2.565,2.094-3.498c0.299-0.237,0.581-0.49,0.905-0.764c2.085,1.457,4.203,1.485,6.295-0.003
				c0.405,0.339,0.794,0.664,1.202,1.005c-1.036,1.392-1.905,2.838-1.695,4.604C7.403,25.288,4.669,25.288,1.935,25.288z"/>
			<path fill-rule="evenodd" clip-rule="evenodd" fill="#A1C7C6" d="M23.621,14.261c-0.001,1.524-0.445,2.919-1.505,4.121
				c-1.709,1.937-4.404,2.017-6.259,0.2c-2.335-2.288-2.274-6.603,0.125-8.836c1.838-1.711,4.51-1.547,6.178,0.377
				C23.122,11.233,23.611,12.619,23.621,14.261z"/>
			<path fill-rule="evenodd" clip-rule="evenodd" fill="#A1C7C6" d="M3.852,14.815c-0.017-1.079,0.287-2.075,0.968-2.962
				c1.381-1.8,3.794-1.847,5.262-0.111c1.407,1.664,1.413,4.465,0.012,6.137c-1.489,1.779-3.875,1.739-5.282-0.097
				C4.13,16.894,3.833,15.894,3.852,14.815z"/>
		</g>
	</g>
</g>
<g id="prop2" display="none">
</g>
</svg>
