<?xml version="1.0" encoding="utf-8"?>
<!-- Generator: Adobe Illustrator 16.0.0, SVG Export Plug-In . SVG Version: 6.00 Build 0)  -->
<!DOCTYPE svg PUBLIC "-//W3C//DTD SVG 1.1//EN" "http://www.w3.org/Graphics/SVG/1.1/DTD/svg11.dtd">
<svg version="1.1" xmlns="http://www.w3.org/2000/svg" xmlns:xlink="http://www.w3.org/1999/xlink" x="0px" y="0px" width="26px"
	 height="19.589px" viewBox="0 0 26 19.589" enable-background="new 0 0 26 19.589" xml:space="preserve">
<g id="refer" display="none">
</g>
<g id="app">
	<path fill-rule="evenodd" clip-rule="evenodd" fill="#A2C8C7" d="M11.008,10.95c-0.133-0.194-0.189-0.313-0.275-0.4
		C9.14,8.951,7.546,7.355,5.948,5.762C5.207,5.023,4.413,5.025,3.663,5.763c-0.628,0.618-1.259,1.235-1.88,1.86
		c-0.68,0.683-0.688,1.575-0.011,2.254c2.708,2.716,5.421,5.428,8.14,8.135c0.174,0.172,0.392,0.332,0.62,0.413
		c0.653,0.231,1.193,0.011,1.673-0.47c2.675-2.687,5.357-5.363,8.037-8.044c1.393-1.393,2.789-2.782,4.178-4.18
		c0.66-0.665,0.68-1.552,0.041-2.204c-0.664-0.68-1.338-1.352-2.034-1.998c-0.207-0.192-0.492-0.345-0.768-0.416
		c-0.577-0.148-1.034,0.118-1.439,0.523c-2.962,2.965-5.932,5.922-8.896,8.885C11.227,10.617,11.158,10.742,11.008,10.95z"/>
</g>
<g id="prop2" display="none">
</g>
</svg>
