<?xml version="1.0" encoding="utf-8"?>
<!-- Generator: Adobe Illustrator 21.0.0, SVG Export Plug-In . SVG Version: 6.00 Build 0)  -->
<svg version="1.1" xmlns="http://www.w3.org/2000/svg" xmlns:xlink="http://www.w3.org/1999/xlink" x="0px" y="0px"
	 viewBox="0 0 24 24" style="enable-background:new 0 0 24 24;" xml:space="preserve">
<style type="text/css">
	.st0{display:none;}
	.st1{fill:#F1F1F1;}
	.st2{fill:url(#SVGID_1_);}
	.st3{fill:none;stroke:#FFFFFF;stroke-miterlimit:10;}
	.st4{fill:url(#SVGID_2_);}
	.st5{fill-rule:evenodd;clip-rule:evenodd;fill:#FEFEFD;}
	.st6{fill-rule:evenodd;clip-rule:evenodd;fill:#FFFFFF;}
	.st7{fill:#FFFFFF;}
	.st8{fill:url(#SVGID_3_);}
	.st9{fill:url(#SVGID_4_);}
	.st10{fill:#63C282;}
	.st11{fill:#4D4D4D;}
	.st12{opacity:0.5;fill:#75A2A1;}
	.st13{fill:url(#SVGID_5_);}
	.st14{fill:url(#SVGID_6_);}
	.st15{fill:#0B4651;}
	.st16{fill:none;stroke:#FFFFFF;stroke-width:2;stroke-linecap:round;stroke-linejoin:round;stroke-miterlimit:10;}
	.st17{fill:url(#SVGID_7_);}
	.st18{fill:url(#SVGID_8_);}
	.st19{fill:none;stroke:#0E646A;stroke-width:2;stroke-miterlimit:10;}
	.st20{fill:url(#SVGID_9_);}
	.st21{fill:url(#SVGID_10_);}
	.st22{fill:url(#SVGID_11_);}
	.st23{fill:none;stroke:#4D4D4D;stroke-width:2;stroke-miterlimit:10;}
	.st24{fill:url(#SVGID_12_);}
	.st25{fill-rule:evenodd;clip-rule:evenodd;fill:#63C282;}
	.st26{fill-rule:evenodd;clip-rule:evenodd;fill:#4D4D4D;}
	.st27{fill:url(#SVGID_13_);}
	.st28{fill:none;stroke:#E5E5E5;stroke-width:3;stroke-miterlimit:10;}
	
		.st29{fill-rule:evenodd;clip-rule:evenodd;fill:none;stroke:#15707B;stroke-width:2;stroke-linecap:round;stroke-linejoin:round;stroke-miterlimit:10;}
	.st30{fill:#0E646A;}
	.st31{fill:#15707B;}
	.st32{fill:url(#SVGID_14_);}
	.st33{fill-rule:evenodd;clip-rule:evenodd;fill:#A2C8C7;}
	.st34{opacity:0.3;}
	.st35{fill-rule:evenodd;clip-rule:evenodd;fill:none;stroke:#808080;stroke-miterlimit:10;}
	.st36{fill:none;stroke:#CBCBCB;stroke-width:6;stroke-linecap:round;stroke-linejoin:round;stroke-miterlimit:10;}
	
		.st37{fill-rule:evenodd;clip-rule:evenodd;fill:none;stroke:#808080;stroke-width:2;stroke-linecap:round;stroke-linejoin:round;stroke-miterlimit:10;}
	.st38{fill:#666666;}
	.st39{fill:#7ECB79;}
	.st40{fill:none;stroke:#ACACAC;stroke-miterlimit:10;}
	.st41{fill-rule:evenodd;clip-rule:evenodd;fill:#15707B;}
	.st42{fill:none;stroke:#63C282;stroke-miterlimit:10;}
	.st43{fill:url(#SVGID_15_);}
	.st44{fill:none;stroke:#63C282;stroke-width:2;stroke-miterlimit:10;}
	.st45{fill:#808080;}
	.st46{fill:#80D97B;}
	.st47{fill:#54B354;}
	.st48{fill:url(#SVGID_16_);}
	.st49{fill:url(#SVGID_17_);}
	.st50{fill-rule:evenodd;clip-rule:evenodd;fill:none;stroke:#4C4C4C;stroke-width:2;stroke-miterlimit:10;}
	.st51{fill:url(#SVGID_20_);}
	.st52{fill:url(#SVGID_21_);}
	
		.st53{fill-rule:evenodd;clip-rule:evenodd;fill:none;stroke:#FFFFFF;stroke-width:2;stroke-linecap:round;stroke-linejoin:round;stroke-miterlimit:10;}
	.st54{fill:none;stroke:#15707B;stroke-width:2;stroke-miterlimit:10;}
	.st55{fill-rule:evenodd;clip-rule:evenodd;fill:#F1F1F1;}
	.st56{fill:url(#SVGID_22_);}
	.st57{fill:url(#SVGID_23_);}
	.st58{fill-rule:evenodd;clip-rule:evenodd;fill:#C0272D;}
	.st59{fill-rule:evenodd;clip-rule:evenodd;fill:none;stroke:#CBCBCB;stroke-miterlimit:10;}
	
		.st60{fill-rule:evenodd;clip-rule:evenodd;fill:none;stroke:#0E646A;stroke-width:2;stroke-linecap:round;stroke-linejoin:round;stroke-miterlimit:10;}
	.st61{fill:url(#SVGID_26_);}
	.st62{fill:url(#SVGID_27_);}
	.st63{fill-rule:evenodd;clip-rule:evenodd;fill:#0E646A;}
	.st64{fill:url(#SVGID_28_);}
	.st65{fill:url(#SVGID_29_);}
	.st66{fill:url(#SVGID_30_);}
	.st67{fill:url(#SVGID_31_);}
	.st68{fill:url(#SVGID_32_);}
	.st69{fill:url(#SVGID_33_);}
	.st70{opacity:0.7;fill:#CBCBCB;}
	.st71{fill-rule:evenodd;clip-rule:evenodd;fill:none;stroke:#FFFFFF;stroke-width:2;stroke-linecap:round;stroke-miterlimit:10;}
	.st72{fill-rule:evenodd;clip-rule:evenodd;fill:#DCFFE5;}
	.st73{fill:url(#SVGID_34_);}
	.st74{fill:url(#SVGID_35_);}
	.st75{fill-rule:evenodd;clip-rule:evenodd;fill:none;stroke:#FFFFFF;stroke-miterlimit:10;}
	.st76{fill-rule:evenodd;clip-rule:evenodd;fill:none;stroke:#989898;stroke-width:2;stroke-linecap:round;stroke-miterlimit:10;}
	.st77{opacity:0.5;fill:#C8DAD9;}
	.st78{fill-rule:evenodd;clip-rule:evenodd;fill:#E0FAE7;}
	.st79{display:inline;fill:#FFFFFF;}
	.st80{display:inline;fill:#F1F1F1;}
	.st81{display:inline;fill:url(#SVGID_36_);}
	.st82{display:inline;fill:url(#SVGID_37_);}
	.st83{display:inline;}
	.st84{display:inline;fill:#63C282;}
	.st85{display:inline;fill:none;stroke:#15707B;stroke-width:2;stroke-miterlimit:10;}
	.st86{display:inline;fill-rule:evenodd;clip-rule:evenodd;fill:none;stroke:#15707B;stroke-miterlimit:10;}
	.st87{display:inline;opacity:0.5;fill:#75A2A1;}
	.st88{display:inline;fill:none;stroke:#63C282;stroke-miterlimit:10;}
	.st89{display:inline;fill:url(#SVGID_38_);}
	.st90{display:inline;fill:url(#SVGID_39_);}
	.st91{display:inline;fill:#0B4651;}
	.st92{display:inline;fill-rule:evenodd;clip-rule:evenodd;fill:none;stroke:#FFFFFF;stroke-miterlimit:10;}
	.st93{display:inline;fill:#06D961;}
	.st94{display:inline;fill:#E5E5E5;}
	.st95{display:inline;fill:#B2B2B2;}
	.st96{fill-rule:evenodd;clip-rule:evenodd;fill:#06D961;}
	.st97{display:inline;opacity:0.3;}
	.st98{display:inline;fill:#4D4D4D;}
	.st99{display:inline;fill:#1A947D;}
	.st100{display:inline;fill:none;stroke:#F1F1F1;stroke-width:3;stroke-miterlimit:10;}
	
		.st101{fill-rule:evenodd;clip-rule:evenodd;fill:none;stroke:#54B354;stroke-width:2;stroke-linecap:round;stroke-linejoin:round;stroke-miterlimit:10;}
	.st102{display:inline;fill:#0E646A;}
	.st103{display:inline;fill:#15707B;}
	.st104{display:inline;fill:url(#SVGID_40_);}
	.st105{fill-rule:evenodd;clip-rule:evenodd;fill:#99D9A3;}
	.st106{display:inline;fill:#7ECB79;}
	.st107{display:inline;fill:none;stroke:#4D4D4D;stroke-miterlimit:10;}
	.st108{display:inline;fill-rule:evenodd;clip-rule:evenodd;fill:#FFFFFF;}
	.st109{display:inline;fill-rule:evenodd;clip-rule:evenodd;fill:#99D9A3;}
	.st110{display:inline;fill-rule:evenodd;clip-rule:evenodd;fill:#15707B;}
	.st111{display:inline;fill:none;stroke:#63C282;stroke-width:2;stroke-miterlimit:10;}
	.st112{display:inline;fill:url(#SVGID_41_);}
	.st113{display:inline;fill-rule:evenodd;clip-rule:evenodd;fill:none;stroke:#808080;stroke-miterlimit:10;}
	.st114{fill:#08D95F;}
</style>
<g id="refer" class="st0">
</g>
<g id="app">
	<g>
		<g>
			<path class="st25" d="M1.3,4.2c0.1,0,0.1,0,0.2,0c4.4,0,8.7,0,13.1,0c0.1,0,0.1,0,0.2,0c-0.1,0.1-0.1,0.1-0.1,0.1
				c-0.7,0.7-1.4,1.5-2.1,2.2c-0.1,0.1-0.2,0.1-0.3,0.1c-2.7,0-5.4,0-8.1,0c-0.1,0-0.2,0-0.3,0c0,4.5,0,9.1,0,13.6
				c4.6,0,9.1,0,13.7,0c0-0.1,0-0.2,0-0.3c0-2.6,0-5.3,0-7.9c0-0.2,0.1-0.3,0.2-0.4c0.7-0.7,1.5-1.5,2.2-2.2
				c0.1-0.1,0.1-0.1,0.2-0.2c0,4.5,0,9.1,0,13.6c-6.3,0-12.5,0-18.8,0C1.3,16.7,1.3,10.5,1.3,4.2z"/>
			<path class="st25" d="M21.2,1.5c0.3,0.1,0.6,0.2,0.9,0.4c0.9,0.7,1,1.9,0.3,2.8c-0.4,0.5-1,0.9-1.4,1.4c-0.9-0.9-1.8-1.8-2.7-2.7
				c0.1-0.1,0.3-0.2,0.4-0.4c0.3-0.3,0.6-0.6,0.8-0.8c0.3-0.4,0.8-0.6,1.2-0.7C20.9,1.5,21.1,1.5,21.2,1.5z"/>
			<path class="st25" d="M17.3,4.4C18.2,5.3,19.1,6.2,20,7c-2.8,2.7-5.5,5.5-8.3,8.3c-0.9-0.8-1.8-1.7-2.7-2.6
				C11.8,9.9,14.6,7.2,17.3,4.4z"/>
			<path class="st25" d="M6.3,18.1c0.6-1.5,1.3-3,1.9-4.5c0.9,0.9,1.8,1.7,2.7,2.6C9.3,16.8,7.8,17.5,6.3,18.1z"/>
		</g>
	</g>
</g>
<g id="prop2" class="st0">
</g>
</svg>
