<?xml version="1.0" encoding="utf-8"?>
<!-- Generator: Adobe Illustrator 16.0.0, SVG Export Plug-In . SVG Version: 6.00 Build 0)  -->
<!DOCTYPE svg PUBLIC "-//W3C//DTD SVG 1.1//EN" "http://www.w3.org/Graphics/SVG/1.1/DTD/svg11.dtd">
<svg version="1.1" xmlns="http://www.w3.org/2000/svg" xmlns:xlink="http://www.w3.org/1999/xlink" x="0px" y="0px"
	 width="25.171px" height="25.76px" viewBox="0 0 25.171 25.76" enable-background="new 0 0 25.171 25.76" xml:space="preserve">
<g id="refer" display="none">
</g>
<g id="app">
	<g>
		<path fill-rule="evenodd" clip-rule="evenodd" fill="#FFFFFF" d="M11.952,1.63c0.54,0,1.08,0,1.62,0
			c0.107,0.026,0.211,0.066,0.319,0.077c4.274,0.418,7.968,3.484,9.127,7.621c0.22,0.785,0.315,1.604,0.469,2.407
			c0,0.477,0,0.953,0,1.43c-0.027,0.122-0.063,0.241-0.081,0.364c-0.628,4.439-3.057,7.437-7.254,8.972
			c-0.82,0.3-1.719,0.392-2.58,0.579c-0.54,0-1.08,0-1.62,0c-0.106-0.025-0.212-0.064-0.321-0.076
			c-4.312-0.449-7.908-3.419-9.125-7.574c-0.217-0.738-0.315-1.509-0.469-2.265c0-0.604,0-1.208,0-1.812
			c0.027-0.09,0.064-0.178,0.078-0.27C2.8,6.563,5.328,3.578,9.641,2.115C10.381,1.864,11.18,1.787,11.952,1.63z M3.764,12.305
			c0.091,5.146,4.125,9.154,9.145,9.037c4.998-0.116,8.854-4.122,8.83-8.959c-0.024-5.108-4.121-9.103-9.113-9.021
			C7.746,3.441,3.68,7.545,3.764,12.305z"/>
		<g>
			<path fill-rule="evenodd" clip-rule="evenodd" fill="#FFFFFF" d="M10.072,19.373c0-0.551,0-1.067,0-1.631
				c0.391,0,0.764,0,1.162,0c0-2.104,0-4.158,0-6.262c-0.354,0-0.695,0-1.068,0c0-0.596,0-1.141,0-1.72c1.342,0,2.682,0,4.072,0
				c0,2.645,0,5.285,0,7.972c0.345,0,0.638,0,0.963,0c0,0.562,0,1.076,0,1.641C13.506,19.373,11.816,19.373,10.072,19.373z"/>
			<path fill-rule="evenodd" clip-rule="evenodd" fill="#FFFFFF" d="M12.749,8.515c-0.933,0.004-1.558-0.585-1.567-1.476
				c-0.01-0.892,0.637-1.505,1.588-1.506c0.941-0.002,1.578,0.617,1.573,1.523C14.338,7.919,13.691,8.51,12.749,8.515z"/>
		</g>
	</g>
</g>
<g id="prop2" display="none">
</g>
</svg>
