<?xml version="1.0" encoding="utf-8"?>
<!-- Generator: Adobe Illustrator 16.0.0, SVG Export Plug-In . SVG Version: 6.00 Build 0)  -->
<!DOCTYPE svg PUBLIC "-//W3C//DTD SVG 1.1//EN" "http://www.w3.org/Graphics/SVG/1.1/DTD/svg11.dtd">
<svg version="1.1" xmlns="http://www.w3.org/2000/svg" xmlns:xlink="http://www.w3.org/1999/xlink" x="0px" y="0px"
	 width="25.171px" height="25.76px" viewBox="0 0 25.171 25.76" enable-background="new 0 0 25.171 25.76" xml:space="preserve">
<g id="refer" display="none">
</g>
<g id="app">
	<g>
		<path fill-rule="evenodd" clip-rule="evenodd" fill="#FFFFFF" d="M2.344,12.701c0-2.648-0.002-5.298,0.001-7.945
			c0.002-2.054,1.063-3.121,3.1-3.121c3.391-0.001,6.779,0.007,10.17-0.009c0.417-0.002,0.712,0.12,1.002,0.417
			c1.947,1.988,3.905,3.964,5.871,5.936c0.261,0.262,0.429,0.534,0.295,0.892c-0.15,0.403-0.497,0.45-0.884,0.448
			c-1.909-0.011-3.816-0.002-5.724-0.007c-0.779-0.001-1.008-0.225-1.011-0.992c-0.006-1.571-0.021-3.144,0.009-4.714
			c0.011-0.48-0.141-0.591-0.603-0.589c-3.074,0.012-6.149-0.009-9.224-0.013c-1.139-0.002-1.63,0.488-1.632,1.647
			c-0.013,5.274-0.022,10.55-0.021,15.824c0,1.605,0.706,2.286,2.313,2.287c4.107,0.001,8.216,0,12.323,0.001
			c0.245,0,0.497-0.01,0.738,0.03c0.359,0.06,0.528,0.309,0.534,0.668c0.006,0.341-0.187,0.55-0.493,0.636
			c-0.169,0.047-0.355,0.032-0.534,0.032c-4.222,0.002-8.44,0.005-12.661,0c-2.221-0.001-3.569-1.349-3.57-3.549
			C2.343,17.952,2.344,15.328,2.344,12.701z M16.544,4.046c0,1.254-0.002,2.45,0.003,3.648c0.001,0.251,0.196,0.257,0.384,0.255
			c0.448-0.001,0.896,0,1.342,0c0.697,0,1.396,0,2.213,0C19.115,6.592,17.865,5.354,16.544,4.046z"/>
		<path fill-rule="evenodd" clip-rule="evenodd" fill="#FFFFFF" d="M9.604,17.299c-1.167,0-2.335,0-3.502-0.001
			c-0.352,0-0.74-0.023-0.72-0.49c0.02-0.41,0.389-0.438,0.715-0.438c2.334-0.003,4.669-0.004,7.003,0.001
			c0.324,0,0.681,0.034,0.683,0.462c0.003,0.432-0.349,0.465-0.677,0.466C11.938,17.3,10.771,17.299,9.604,17.299z"/>
		<path fill-rule="evenodd" clip-rule="evenodd" fill="#FFFFFF" d="M9.582,14.841c-1.168,0-2.335-0.004-3.501,0.002
			c-0.333,0.002-0.683-0.009-0.696-0.434c-0.015-0.431,0.329-0.468,0.665-0.468c2.357,0.001,4.713,0,7.07,0
			c0.335,0,0.678,0.045,0.662,0.476c-0.017,0.437-0.376,0.425-0.701,0.425C11.915,14.84,10.748,14.841,9.582,14.841z"/>
		<path fill-rule="evenodd" clip-rule="evenodd" fill="#FFFFFF" d="M9.582,19.707c-1.167,0-2.333,0-3.499,0
			c-0.322,0.001-0.686,0.018-0.677-0.435c0.01-0.452,0.381-0.415,0.697-0.415c2.332,0,4.664,0,6.995-0.001
			c0.323,0,0.689-0.013,0.679,0.436c-0.01,0.447-0.381,0.415-0.698,0.415C11.913,19.707,10.747,19.707,9.582,19.707z"/>
		<g>
			<path fill="#FFFFFF" d="M19.752,10.892v0.61c0.402,0.04,0.747,0.123,1.035,0.247s0.538,0.313,0.752,0.564
				c0.17,0.191,0.3,0.389,0.392,0.591c0.093,0.203,0.139,0.389,0.139,0.559c0,0.188-0.069,0.351-0.206,0.487
				c-0.137,0.138-0.304,0.206-0.499,0.206c-0.368,0-0.607-0.199-0.717-0.597c-0.122-0.47-0.421-0.783-0.896-0.937v2.346
				c0.466,0.127,0.838,0.244,1.114,0.35c0.275,0.104,0.524,0.257,0.741,0.456c0.233,0.206,0.412,0.453,0.538,0.741
				c0.126,0.287,0.189,0.603,0.189,0.944c0,0.429-0.102,0.83-0.303,1.204s-0.496,0.678-0.887,0.916
				c-0.392,0.236-0.855,0.378-1.394,0.422v1.404c0,0.223-0.021,0.383-0.064,0.485c-0.043,0.102-0.138,0.152-0.284,0.152
				c-0.137,0-0.23-0.042-0.285-0.124c-0.055-0.083-0.081-0.212-0.081-0.384v-1.521c-0.44-0.05-0.824-0.152-1.154-0.31
				c-0.329-0.159-0.604-0.355-0.823-0.591c-0.219-0.234-0.381-0.479-0.486-0.732c-0.106-0.254-0.158-0.503-0.158-0.747
				c0-0.181,0.07-0.343,0.212-0.487c0.139-0.146,0.315-0.217,0.525-0.217c0.17,0,0.313,0.039,0.43,0.117
				c0.116,0.079,0.197,0.19,0.242,0.333c0.102,0.309,0.19,0.544,0.266,0.707c0.074,0.165,0.188,0.313,0.34,0.448
				c0.153,0.136,0.355,0.24,0.607,0.31v-2.621c-0.504-0.138-0.925-0.293-1.264-0.464s-0.612-0.415-0.823-0.73
				c-0.211-0.316-0.315-0.722-0.315-1.218c0-0.647,0.206-1.178,0.617-1.59c0.412-0.413,1.007-0.654,1.785-0.721v-0.599
				c0-0.315,0.117-0.474,0.354-0.474C19.633,10.43,19.752,10.584,19.752,10.892z M19.037,14.76v-2.159
				c-0.316,0.094-0.563,0.218-0.74,0.372c-0.177,0.154-0.264,0.387-0.264,0.698c0,0.297,0.082,0.522,0.247,0.674
				C18.447,14.497,18.698,14.636,19.037,14.76z M19.752,16.434v2.471c0.38-0.076,0.674-0.228,0.88-0.458
				c0.207-0.229,0.31-0.496,0.31-0.8c0-0.327-0.101-0.581-0.302-0.758C20.438,16.71,20.144,16.558,19.752,16.434z"/>
		</g>
	</g>
</g>
<g id="prop2" display="none">
</g>
</svg>
