<?xml version="1.0" encoding="utf-8"?>
<!-- Generator: Adobe Illustrator 16.0.0, SVG Export Plug-In . SVG Version: 6.00 Build 0)  -->
<!DOCTYPE svg PUBLIC "-//W3C//DTD SVG 1.1//EN" "http://www.w3.org/Graphics/SVG/1.1/DTD/svg11.dtd">
<svg version="1.1" xmlns="http://www.w3.org/2000/svg" xmlns:xlink="http://www.w3.org/1999/xlink" x="0px" y="0px"
	 width="34.234px" height="33.768px" viewBox="0 0 34.234 33.768" enable-background="new 0 0 34.234 33.768" xml:space="preserve">
<g id="refer" display="none">
</g>
<g id="app">
	<path fill-rule="evenodd" clip-rule="evenodd" fill="#FFFFFF" d="M33.794,15.841c0,0.695,0,1.39,0,2.085
		c-0.02,0.104-0.052,0.208-0.059,0.313c-0.182,2.391-0.836,4.644-2.025,6.726c-2.543,4.447-6.324,7.216-11.337,8.279
		c-0.729,0.155-1.476,0.214-2.216,0.318c-0.693,0-1.389,0-2.084,0c-0.408-0.048-0.816-0.087-1.225-0.144
		c-2.439-0.336-4.704-1.155-6.766-2.51c-3.911-2.573-6.358-6.155-7.321-10.738c-0.155-0.737-0.218-1.495-0.324-2.243
		c0-0.695,0-1.39,0-2.085c0.048-0.406,0.088-0.813,0.144-1.219c0.332-2.418,1.139-4.666,2.474-6.711
		c2.577-3.953,6.183-6.422,10.804-7.388c0.729-0.152,1.476-0.214,2.215-0.317c0.695,0,1.391,0,2.084,0
		c0.129,0.021,0.255,0.052,0.383,0.062c1.413,0.109,2.791,0.386,4.12,0.869c3.391,1.232,6.144,3.309,8.196,6.284
		c1.373,1.988,2.293,4.168,2.682,6.561C33.639,14.599,33.709,15.221,33.794,15.841z M15.136,19.368
		c-0.126-0.185-0.181-0.297-0.263-0.38c-1.509-1.515-3.021-3.028-4.534-4.539c-0.704-0.701-1.457-0.698-2.168,0
		c-0.595,0.586-1.192,1.171-1.782,1.764c-0.644,0.646-0.652,1.493-0.01,2.137c2.567,2.575,5.141,5.146,7.718,7.712
		c0.164,0.164,0.372,0.314,0.588,0.391c0.619,0.221,1.13,0.011,1.585-0.445c2.536-2.546,5.079-5.085,7.62-7.626
		c1.32-1.32,2.645-2.638,3.961-3.962c0.626-0.631,0.644-1.472,0.039-2.09c-0.63-0.644-1.269-1.281-1.929-1.894
		c-0.196-0.183-0.466-0.327-0.728-0.394c-0.548-0.141-0.98,0.111-1.365,0.496c-2.809,2.811-5.623,5.614-8.434,8.423
		C15.342,19.053,15.278,19.17,15.136,19.368z"/>
</g>
<g id="prop2" display="none">
</g>
</svg>
