<?xml version="1.0" encoding="utf-8"?>
<!-- Generator: Adobe Illustrator 16.0.0, SVG Export Plug-In . SVG Version: 6.00 Build 0)  -->
<!DOCTYPE svg PUBLIC "-//W3C//DTD SVG 1.1//EN" "http://www.w3.org/Graphics/SVG/1.1/DTD/svg11.dtd">
<svg version="1.1" xmlns="http://www.w3.org/2000/svg" xmlns:xlink="http://www.w3.org/1999/xlink" x="0px" y="0px" width="15.75px"
	 height="22.813px" viewBox="0 0 10.75 17.813" enable-background="new 0 0 10.75 17.813" xml:space="preserve">
<g id="refer" display="none">
</g>
<g id="app">
	<path fill-rule="evenodd" clip-rule="evenodd" fill="#63C282" d="M7.996,1.696H2.758c-0.761,0-1.378,0.539-1.378,1.205v12.283
		c0,0.666,0.617,1.203,1.378,1.203h5.238c0.763,0,1.379-0.537,1.379-1.203V2.901C9.375,2.235,8.759,1.696,7.996,1.696z M4.931,2.571
		h1.608c0.089,0,0.161,0.064,0.161,0.141c0,0.078-0.072,0.141-0.161,0.141H4.931c-0.089,0-0.161-0.063-0.161-0.141
		C4.77,2.635,4.842,2.571,4.931,2.571z M4.273,2.571c0.089,0,0.161,0.064,0.161,0.141c0,0.078-0.072,0.141-0.161,0.141
		S4.111,2.79,4.111,2.711C4.111,2.635,4.185,2.571,4.273,2.571z M5.353,15.762c-0.367,0-0.668-0.26-0.668-0.582
		c0-0.32,0.301-0.582,0.668-0.582c0.368,0,0.667,0.262,0.667,0.582C6.02,15.502,5.721,15.762,5.353,15.762z M8.824,14.221H1.931
		V3.743h6.894V14.221z"/>
</g>
<g id="prop2" display="none">
</g>
</svg>
