<?xml version="1.0" encoding="utf-8"?>
<!-- Generator: Adobe Illustrator 16.0.0, SVG Export Plug-In . SVG Version: 6.00 Build 0)  -->
<!DOCTYPE svg PUBLIC "-//W3C//DTD SVG 1.1//EN" "http://www.w3.org/Graphics/SVG/1.1/DTD/svg11.dtd">
<svg version="1.1" xmlns="http://www.w3.org/2000/svg" xmlns:xlink="http://www.w3.org/1999/xlink" x="0px" y="0px"
	 width="24.375px" height="23.75px" viewBox="0 0 24.375 23.75" enable-background="new 0 0 24.375 23.75" xml:space="preserve">
<g id="refer" display="none">
</g>
<g id="app">
	<g>
		<g>
			<path fill-rule="evenodd" clip-rule="evenodd" fill="#A2C8C7" d="M1.531,3.823C1.6,3.82,1.669,3.814,1.738,3.814
				c4.299-0.001,8.6-0.001,12.899-0.001c0.068,0,0.135,0,0.241,0c-0.056,0.07-0.087,0.111-0.121,0.148
				c-0.699,0.74-1.402,1.477-2.097,2.221c-0.093,0.1-0.188,0.137-0.323,0.137c-2.68-0.004-5.359-0.003-8.039-0.003
				c-0.082,0-0.166,0-0.266,0c0,4.491,0,8.972,0,13.468c4.5,0,8.997,0,13.521,0c0-0.098,0-0.186,0-0.274
				c0-2.609,0.001-5.22-0.005-7.831c0-0.166,0.05-0.281,0.169-0.396c0.734-0.715,1.463-1.436,2.192-2.155
				c0.052-0.052,0.108-0.1,0.187-0.171c0,4.494,0,8.954,0,13.439c-6.19,0-12.38,0-18.566,0C1.531,16.204,1.531,10.015,1.531,3.823z"
				/>
			<path fill-rule="evenodd" clip-rule="evenodd" fill="#A2C8C7" d="M21.141,1.123c0.323,0.081,0.641,0.167,0.907,0.382
				c0.892,0.722,1.022,1.887,0.261,2.743c-0.442,0.494-0.946,0.931-1.402,1.372c-0.855-0.857-1.732-1.734-2.645-2.646
				c0.109-0.1,0.261-0.23,0.404-0.37c0.28-0.276,0.563-0.552,0.836-0.837c0.337-0.354,0.748-0.557,1.224-0.644
				C20.864,1.123,21.002,1.123,21.141,1.123z"/>
			<path fill-rule="evenodd" clip-rule="evenodd" fill="#A2C8C7" d="M17.315,4.007c0.86,0.859,1.735,1.734,2.604,2.605
				c-2.719,2.709-5.449,5.429-8.196,8.164c-0.856-0.836-1.746-1.705-2.635-2.574C11.839,9.462,14.58,6.73,17.315,4.007z"/>
			<path fill-rule="evenodd" clip-rule="evenodd" fill="#A2C8C7" d="M6.381,17.546c0.64-1.52,1.26-2.992,1.892-4.492
				c0.886,0.865,1.752,1.712,2.642,2.581C9.396,16.274,7.911,16.9,6.381,17.546z"/>
		</g>
	</g>
</g>
<g id="prop2" display="none">
</g>
</svg>
