<?xml version="1.0" encoding="utf-8"?>
<!-- Generator: Adobe Illustrator 16.0.0, SVG Export Plug-In . SVG Version: 6.00 Build 0)  -->
<!DOCTYPE svg PUBLIC "-//W3C//DTD SVG 1.1//EN" "http://www.w3.org/Graphics/SVG/1.1/DTD/svg11.dtd">
<svg version="1.1" xmlns="http://www.w3.org/2000/svg" xmlns:xlink="http://www.w3.org/1999/xlink" x="0px" y="0px" width="21.75px"
	 height="21.5px" viewBox="0 0 21.75 21.5" enable-background="new 0 0 21.75 21.5" xml:space="preserve">
<g id="refer" display="none">
</g>
<g id="app">
	<g>
		<g>
			<path fill="#63C282" d="M1.724,4.973c0.453-0.865,0.811-1.066,1.778-0.971c0,0.201-0.012,0.408,0.003,0.613
				c0.047,0.656,0.553,1.133,1.188,1.131c0.64,0,1.135-0.473,1.18-1.135c0.014-0.193,0.002-0.389,0.002-0.613
				c2.382,0,4.722,0,7.093,0c0.037,0.541-0.027,1.139,0.498,1.488c0.221,0.145,0.517,0.244,0.779,0.246
				c0.738,0.008,1.047-0.469,1.179-1.711c1.012-0.203,1.726,0.355,1.733,1.377c0.01,1.475,0.002,2.949,0.002,4.455
				c-0.389,0-0.746,0-1.154,0c0-0.748,0-1.514,0-2.309c-4.375,0-8.7,0-13.081,0C2.918,7.664,2.906,7.797,2.906,7.93
				c-0.001,2.49,0.008,4.979-0.009,7.469c-0.003,0.379,0.112,0.471,0.479,0.469c2.039-0.018,4.078-0.008,6.118-0.008
				c0.152,0,0.306,0,0.49,0c0,0.393,0,0.76,0,1.15c-2.393,0-4.766,0.018-7.139-0.014c-0.621-0.008-0.94-0.488-1.122-1.047
				C1.724,12.291,1.724,8.631,1.724,4.973z"/>
			<path fill="#63C282" d="M15.488,20.594c-0.704-0.26-1.471-0.416-2.1-0.799c-1.828-1.115-2.602-3.443-1.911-5.459
				c0.731-2.133,2.707-3.393,5.026-3.203c2.04,0.168,3.815,1.859,4.144,3.945c0.015,0.096,0.051,0.188,0.076,0.281
				c0,0.338,0,0.676,0,1.012c-0.024,0.064-0.061,0.125-0.071,0.189c-0.272,1.66-1.179,2.855-2.685,3.572
				c-0.458,0.219-0.976,0.311-1.467,0.461C16.163,20.594,15.826,20.594,15.488,20.594z M15.981,19.41
				c1.959,0,3.564-1.613,3.559-3.574c-0.006-1.957-1.616-3.563-3.574-3.564c-1.941,0-3.584,1.648-3.564,3.58
				C12.422,17.822,14.021,19.412,15.981,19.41z"/>
			<path fill="#63C282" d="M4.848,1.594C5.165,1.762,5.296,2.01,5.282,2.381C5.256,3.066,5.277,3.754,5.273,4.441
				C5.271,4.895,5.046,5.154,4.677,5.145C4.33,5.135,4.104,4.877,4.101,4.457C4.093,3.742,4.107,3.025,4.094,2.311
				C4.088,1.975,4.249,1.762,4.511,1.594C4.623,1.594,4.735,1.594,4.848,1.594z"/>
			<path fill="#63C282" d="M14.391,1.594c0.295,0.193,0.403,0.461,0.393,0.816c-0.021,0.672-0.001,1.346-0.008,2.018
				c-0.004,0.467-0.214,0.717-0.583,0.717c-0.372,0-0.572-0.246-0.574-0.717c-0.003-0.686,0.017-1.373-0.008-2.061
				c-0.014-0.369,0.111-0.619,0.442-0.773C14.165,1.594,14.277,1.594,14.391,1.594z"/>
			<path fill="#63C282" d="M4.112,12.322c0.794,0,1.547,0,2.323,0c0,0.771,0,1.523,0,2.297c-0.778,0-1.544,0-2.323,0
				C4.112,13.848,4.112,13.107,4.112,12.322z"/>
			<path fill="#63C282" d="M7.704,12.316c0.77,0,1.51,0,2.281,0c0,0.766,0,1.516,0,2.299c-0.749,0-1.498,0-2.281,0
				C7.704,13.863,7.704,13.113,7.704,12.316z"/>
			<path fill="#63C282" d="M6.426,11.057c-0.77,0-1.521,0-2.301,0c0-0.766,0-1.516,0-2.293c0.764,0,1.515,0,2.301,0
				C6.426,9.506,6.426,10.256,6.426,11.057z"/>
			<path fill="#63C282" d="M9.999,8.766c0,0.773,0,1.512,0,2.279c-0.766,0-1.514,0-2.297,0c0-0.75,0-1.498,0-2.279
				C8.459,8.766,9.208,8.766,9.999,8.766z"/>
			<path fill="#63C282" d="M11.271,8.76c0.761,0,1.5,0,2.276,0c0,0.752,0,1.502,0,2.283c-0.748,0-1.499,0-2.276,0
				C11.271,10.285,11.271,9.535,11.271,8.76z"/>
			<path fill="#63C282" d="M15.968,15.859c0.59,0,1.135-0.004,1.678,0c0.419,0.004,0.689,0.225,0.7,0.563
				c0.012,0.359-0.261,0.602-0.708,0.605c-0.716,0.008-1.433,0.01-2.148,0c-0.485-0.006-0.683-0.213-0.686-0.699
				c-0.004-0.73-0.005-1.461,0.001-2.191c0.003-0.418,0.197-0.637,0.554-0.648c0.369-0.012,0.598,0.221,0.606,0.65
				C15.978,14.695,15.968,15.254,15.968,15.859z"/>
		</g>
	</g>
</g>
<g id="prop2" display="none">
</g>
</svg>
