<?xml version="1.0" encoding="utf-8"?>
<!-- Generator: Adobe Illustrator 16.0.0, SVG Export Plug-In . SVG Version: 6.00 Build 0)  -->
<!DOCTYPE svg PUBLIC "-//W3C//DTD SVG 1.1//EN" "http://www.w3.org/Graphics/SVG/1.1/DTD/svg11.dtd">
<svg version="1.1" xmlns="http://www.w3.org/2000/svg" xmlns:xlink="http://www.w3.org/1999/xlink" x="0px" y="0px"
	 width="37.833px" height="35.903px" viewBox="0 0 37.833 35.903" enable-background="new 0 0 37.833 35.903" xml:space="preserve">
<g id="refer" display="none">
</g>
<g id="app">
	<g>
		<path fill="none" stroke="#FFFFFF" stroke-miterlimit="10" d="M35.333,29.403c0,2.761-2.238,5-5,5h-22c-2.762,0-5-2.239-5-5v-22
			c0-2.761,2.238-5,5-5h22c2.762,0,5,2.239,5,5V29.403z"/>
		<g>
			<path fill-rule="evenodd" clip-rule="evenodd" fill="#FEFEFD" d="M19.463,27.894c-2.568,0-5.137,0.004-7.705-0.003
				c-0.605-0.001-1.118-0.402-1.313-0.989c-0.061-0.184-0.074-0.394-0.053-0.597c0.028-0.285-0.014-0.571-0.013-0.856
				c0.003-2.432-0.003-4.864,0.006-7.296c0.002-0.684-0.011-1.366-0.006-2.05c0.003-0.464,0.108-0.89,0.46-1.215
				c0.176-0.162,0.391-0.27,0.628-0.313c0.46-0.084,0.926-0.048,1.389-0.049c4.264-0.002,8.528,0,12.791,0.001
				c0.426,0,0.853-0.002,1.278,0.001c0.358,0.002,0.709,0.049,1.008,0.267c0.266,0.193,0.438,0.455,0.537,0.769
				c0.07,0.225,0.053,0.454,0.053,0.682c0.002,3.378,0.004,6.756-0.002,10.135c0,0.424-0.097,0.826-0.437,1.128
				c-0.276,0.245-0.592,0.385-0.962,0.385c-1.247,0.001-2.494,0-3.739,0C22.076,27.893,20.769,27.893,19.463,27.894
				C19.463,27.893,19.463,27.894,19.463,27.894z M14.756,21.034c-0.002,0.022-0.004,0.045,0.027,0.047
				c0.113,0.208,0.286,0.357,0.481,0.485c0.077,0.073,0.175,0.11,0.273,0.145c0.011,0.031,0.042,0.038,0.067,0.045
				c0.433,0.122,0.868,0.173,1.313,0.067c0.317-0.076,0.611-0.203,0.846-0.429c0.245-0.236,0.409-0.522,0.504-0.857
				c0.09-0.32,0.185-0.638,0.191-0.97c0.01-0.515,0.035-1.029-0.1-1.54c-0.092-0.35-0.212-0.685-0.432-0.965
				c-0.321-0.411-0.767-0.633-1.286-0.684c-0.341-0.033-0.68,0-1.009,0.103c-0.462,0.144-0.774,0.463-0.983,0.875
				c-0.242,0.475-0.322,0.997-0.342,1.524c-0.016,0.444,0.012,0.888,0.112,1.322c0.037,0.159,0.062,0.328,0.161,0.468
				c0.019,0.131,0.09,0.236,0.165,0.34C14.747,21.019,14.75,21.027,14.756,21.034z M21.949,17.659
				c0.162-0.032,0.117-0.183,0.162-0.282c0.148-0.246,0.281-0.499,0.417-0.751c0.065-0.122,0.017-0.123-0.077-0.122
				c-0.326,0-0.652,0.01-0.979-0.005c-0.214-0.009-0.345,0.026-0.461,0.25c-0.258,0.495-0.533,0.982-0.82,1.461
				c-0.128,0.213-0.243,0.44-0.359,0.663c-0.301,0.57-0.632,1.124-0.949,1.683c-0.197,0.347-0.363,0.711-0.566,1.057
				c-0.253,0.433-0.486,0.877-0.73,1.315c-0.239,0.428-0.454,0.868-0.717,1.283c-0.184,0.293-0.34,0.604-0.495,0.913
				c-0.068,0.134-0.073,0.133,0.079,0.133c0.374,0,0.749-0.007,1.124,0.001c0.13,0.003,0.203-0.04,0.26-0.154
				c0.311-0.633,0.689-1.23,1.011-1.858c0.122-0.24,0.28-0.462,0.402-0.706c0.123-0.244,0.264-0.478,0.397-0.717
				c0.097-0.119,0.197-0.235,0.217-0.397c0.157-0.283,0.313-0.566,0.469-0.849c0.156-0.28,0.31-0.561,0.465-0.839
				c0.171-0.302,0.347-0.6,0.516-0.902c0.146-0.258,0.294-0.515,0.429-0.778C21.81,17.924,21.919,17.813,21.949,17.659z
				 M24.366,21.119c-0.037-0.075,0.063-0.203-0.104-0.238c-0.029-0.006-0.09-0.13-0.119-0.208c-0.083-0.237-0.305-0.333-0.479-0.48
				c-0.006-0.005-0.019-0.001-0.027-0.001c-0.117-0.121-0.272-0.173-0.426-0.223c-0.364-0.116-0.74-0.094-1.11-0.059
				c-0.346,0.033-0.659,0.183-0.927,0.393c-0.168,0.134-0.296,0.332-0.395,0.53c-0.217,0.436-0.299,0.907-0.328,1.391
				c-0.047,0.715,0.011,1.416,0.317,2.074c0.149,0.323,0.361,0.599,0.676,0.79c0.402,0.246,0.84,0.31,1.299,0.272
				c0.399-0.033,0.765-0.16,1.073-0.426c0.271-0.232,0.46-0.513,0.568-0.853c0.104-0.325,0.203-0.652,0.205-0.996
				c0.004-0.43,0.029-0.86-0.045-1.289C24.505,21.563,24.414,21.348,24.366,21.119z"/>
			<path fill-rule="evenodd" clip-rule="evenodd" fill="#FEFEFD" d="M22.143,13.89c-0.322,0.072-0.644,0.145-0.965,0.218
				c-0.157,0.036-0.256-0.046-0.337-0.24c-0.046-0.109,0.03-0.245,0.151-0.294c0.314-0.129,0.611-0.293,0.901-0.468
				c0.213-0.121,0.417-0.254,0.612-0.401c0.062-0.046,0.084-0.119,0.147-0.171c0.101-0.084,0.224-0.171,0.261-0.317l0.002-0.001
				c0.083,0.004,0.096-0.057,0.105-0.119c0.088-0.156,0.17-0.315,0.105-0.502c-0.063-0.184-0.202-0.27-0.387-0.297
				c-0.254-0.037-0.494,0.026-0.721,0.123c-0.729,0.313-1.297,0.829-1.772,1.454c-0.149,0.195-0.236,0.219-0.409,0.111
				c-0.152-0.096-0.186-0.271-0.079-0.456c0.266-0.464,0.548-0.917,0.867-1.35c0.347-0.469,0.726-0.901,1.153-1.291
				c0.377-0.344,0.791-0.643,1.277-0.813c0.404-0.142,0.829-0.216,1.252-0.117c0.52,0.121,0.929,0.414,1.143,0.918
				c0.281,0.667,0.199,1.309-0.146,1.939c-0.141,0.257-0.327,0.471-0.512,0.686c-0.085,0.101-0.204,0.186-0.313,0.268
				c-0.037,0-0.055,0.02-0.057,0.055v0c-0.055,0.002-0.092,0.039-0.137,0.063c-0.209,0.116-0.367,0.31-0.604,0.383
				c-0.028,0.008-0.048,0.025-0.048,0.059l0,0c-0.117,0.023-0.2,0.119-0.315,0.147c-0.009,0.001-0.016,0.006-0.02,0.014
				c-0.014-0.011-0.022-0.003-0.028,0.008c-0.228,0.106-0.481,0.138-0.699,0.267C22.43,13.806,22.285,13.848,22.143,13.89z"/>
			<path fill-rule="evenodd" clip-rule="evenodd" fill="#FEFEFD" d="M16.045,12.319c0.313,0.402,0.746,0.649,1.168,0.91
				c0.21,0.129,0.442,0.215,0.661,0.325c0.175,0.086,0.243,0.202,0.187,0.36c-0.059,0.166-0.203,0.226-0.386,0.179
				c-0.202-0.052-0.407-0.09-0.611-0.135c-0.413-0.091-0.813-0.226-1.211-0.369c-0.357-0.129-0.694-0.307-1.007-0.512
				c-0.344-0.228-0.665-0.498-0.936-0.826c-0.248-0.299-0.407-0.638-0.528-0.995c-0.11-0.323-0.12-0.661-0.045-1.004
				c0.097-0.434,0.311-0.782,0.674-1.035c0.142-0.098,0.292-0.179,0.458-0.223c0.126,0.003,0.239-0.065,0.368-0.056
				c0.178,0.013,0.356,0.003,0.534,0.003c0.38,0.071,0.729,0.219,1.057,0.418c0.466,0.283,0.882,0.624,1.24,1.033
				c0.291,0.332,0.565,0.674,0.813,1.041c0.245,0.365,0.463,0.744,0.688,1.119c0.121,0.204-0.012,0.465-0.251,0.49
				c-0.074,0.008-0.133-0.021-0.181-0.082c-0.243-0.311-0.494-0.616-0.792-0.877c-0.39-0.341-0.807-0.644-1.323-0.768
				c-0.04-0.01-0.084-0.008-0.125-0.012c-0.221-0.133-0.53-0.001-0.655,0.12c-0.05,0.049-0.116,0.124-0.079,0.219
				c0,0.028,0,0.056,0,0.085C15.755,11.974,15.845,12.174,16.045,12.319z"/>
			<path fill-rule="evenodd" clip-rule="evenodd" fill="#FEFEFD" d="M19.48,14.226c-0.295,0-0.59-0.004-0.883,0.002
				c-0.105,0.002-0.142-0.031-0.138-0.135c0.024-0.544,0.513-1.004,1.132-0.949c0.458,0.041,0.904,0.497,0.9,0.961
				c0,0.093-0.021,0.125-0.113,0.123C20.078,14.223,19.779,14.226,19.48,14.226z"/>
			<path fill-rule="evenodd" clip-rule="evenodd" fill="#FEFEFD" d="M16.948,19.115c0.019,0.381-0.008,0.757-0.122,1.123
				c-0.06,0.197-0.252,0.436-0.484,0.399c-0.096-0.015-0.17-0.058-0.229-0.121c-0.118-0.128-0.197-0.284-0.225-0.457
				c-0.071-0.444-0.089-0.893-0.057-1.341c0.02-0.281,0.037-0.568,0.174-0.828c0.084-0.158,0.203-0.253,0.387-0.25
				c0.188,0.003,0.311,0.099,0.384,0.271c0.14,0.327,0.184,0.668,0.172,1.021C16.946,18.993,16.948,19.054,16.948,19.115z"/>
			<path fill-rule="evenodd" clip-rule="evenodd" fill="#FEFEFD" d="M21.949,22.355c0.008-0.323,0.045-0.643,0.174-0.942
				c0.111-0.265,0.42-0.369,0.631-0.201c0.134,0.106,0.223,0.267,0.254,0.434c0.091,0.49,0.084,0.987,0.062,1.482
				c-0.012,0.241-0.05,0.481-0.155,0.703c-0.112,0.235-0.261,0.321-0.486,0.294c-0.149-0.018-0.303-0.209-0.357-0.406
				c-0.074-0.271-0.114-0.548-0.121-0.829C21.949,22.712,21.949,22.534,21.949,22.355z"/>
		</g>
	</g>
</g>
<g id="prop2" display="none">
</g>
</svg>
