<?xml version="1.0" encoding="utf-8"?>
<!-- Generator: Adobe Illustrator 16.0.0, SVG Export Plug-In . SVG Version: 6.00 Build 0)  -->
<!DOCTYPE svg PUBLIC "-//W3C//DTD SVG 1.1//EN" "http://www.w3.org/Graphics/SVG/1.1/DTD/svg11.dtd">
<svg version="1.1" xmlns="http://www.w3.org/2000/svg" xmlns:xlink="http://www.w3.org/1999/xlink" x="0px" y="0px"
	 width="37.833px" height="35.903px" viewBox="0 0 37.833 35.903" enable-background="new 0 0 37.833 35.903" xml:space="preserve">
<g id="refer" display="none">
</g>
<g id="app">
	<g>
		<path fill="none" stroke="#FFFFFF" stroke-miterlimit="10" d="M34.833,28.46c0,2.761-2.238,5-5,5h-22c-2.762,0-5-2.239-5-5v-22
			c0-2.761,2.238-5,5-5h22c2.762,0,5,2.239,5,5V28.46z"/>
		<rect x="7.603" y="7.046" fill="#FFFFFF" width="6.08" height="5.186"/>
		<rect x="7.326" y="4.912" fill="#FFFFFF" width="6.633" height="1.851"/>
		<rect x="7.603" y="15.909" fill="#FFFFFF" width="6.08" height="5.188"/>
		<rect x="7.31" y="13.778" fill="#FFFFFF" width="6.633" height="1.852"/>
		<rect x="15.618" y="14.817" fill="#FFFFFF" width="6.079" height="5.188"/>
		<rect x="15.323" y="12.683" fill="#FFFFFF" width="6.633" height="1.852"/>
		<rect x="7.603" y="24.772" fill="#FFFFFF" width="6.08" height="5.188"/>
		<rect x="7.326" y="22.635" fill="#FFFFFF" width="6.633" height="1.851"/>
		<rect x="24.736" y="24.772" fill="#FFFFFF" width="6.079" height="5.188"/>
		<rect x="24.46" y="22.635" fill="#FFFFFF" width="6.632" height="1.851"/>
		<rect x="15.618" y="23.954" fill="#FFFFFF" width="7.184" height="6.006"/>
		<rect x="15.308" y="21.546" fill="#FFFFFF" width="7.74" height="2.115"/>
	</g>
</g>
<g id="prop2" display="none">
</g>
</svg>
