<?xml version="1.0" encoding="utf-8"?>
<!-- Generator: Adobe Illustrator 16.0.0, SVG Export Plug-In . SVG Version: 6.00 Build 0)  -->
<!DOCTYPE svg PUBLIC "-//W3C//DTD SVG 1.1//EN" "http://www.w3.org/Graphics/SVG/1.1/DTD/svg11.dtd">
<svg version="1.1" xmlns="http://www.w3.org/2000/svg" xmlns:xlink="http://www.w3.org/1999/xlink" x="0px" y="0px"
	 width="16.601px" height="15.917px" viewBox="0 0 16.601 15.917" enable-background="new 0 0 16.601 15.917" xml:space="preserve">
<g id="refer" display="none">
</g>
<g id="app">
	<path fill-rule="evenodd" clip-rule="evenodd" fill="#63C282" d="M15.287,7.565c0,0.289,0,0.58,0,0.869
		c-0.008,0.045-0.021,0.088-0.024,0.131c-0.076,0.998-0.349,1.938-0.845,2.807c-1.061,1.855-2.639,3.01-4.729,3.453
		c-0.304,0.064-0.616,0.09-0.925,0.133c-0.289,0-0.579,0-0.869,0c-0.17-0.02-0.341-0.037-0.511-0.061
		c-1.018-0.139-1.963-0.48-2.822-1.047c-1.633-1.072-2.653-2.566-3.055-4.479C1.441,9.063,1.415,8.747,1.371,8.435
		c0-0.289,0-0.58,0-0.869c0.02-0.17,0.037-0.34,0.06-0.51C1.569,6.048,1.905,5.11,2.463,4.257c1.075-1.648,2.579-2.68,4.507-3.082
		c0.305-0.064,0.616-0.09,0.925-0.133c0.29,0,0.58,0,0.869,0c0.054,0.01,0.106,0.021,0.159,0.027c0.59,0.045,1.165,0.16,1.72,0.361
		c1.415,0.514,2.563,1.381,3.419,2.621c0.573,0.83,0.957,1.74,1.119,2.738C15.223,7.048,15.252,7.308,15.287,7.565z M7.503,9.036
		C7.45,8.96,7.428,8.913,7.394,8.878c-0.63-0.631-1.26-1.264-1.892-1.893c-0.294-0.293-0.607-0.293-0.904,0
		C4.349,7.229,4.1,7.474,3.854,7.72C3.585,7.991,3.582,8.345,3.85,8.612c1.071,1.074,2.145,2.146,3.22,3.217
		c0.069,0.068,0.155,0.133,0.245,0.164c0.259,0.092,0.473,0.004,0.662-0.186c1.058-1.063,2.119-2.121,3.179-3.182
		c0.551-0.551,1.104-1.102,1.652-1.654c0.262-0.262,0.269-0.613,0.017-0.871c-0.263-0.27-0.529-0.535-0.805-0.789
		c-0.082-0.078-0.194-0.137-0.304-0.166c-0.229-0.059-0.409,0.047-0.569,0.207C9.975,6.526,8.8,7.696,7.628,8.868
		C7.589,8.905,7.563,8.954,7.503,9.036z"/>
</g>
<g id="prop2" display="none">
</g>
</svg>
