<?xml version="1.0" encoding="utf-8"?>
<!-- Generator: Adobe Illustrator 16.0.0, SVG Export Plug-In . SVG Version: 6.00 Build 0)  -->
<!DOCTYPE svg PUBLIC "-//W3C//DTD SVG 1.1//EN" "http://www.w3.org/Graphics/SVG/1.1/DTD/svg11.dtd">
<svg version="1.1" xmlns="http://www.w3.org/2000/svg" xmlns:xlink="http://www.w3.org/1999/xlink" x="0px" y="0px"
	 width="25.171px" height="25.76px" viewBox="0 0 25.171 25.76" enable-background="new 0 0 25.171 25.76" xml:space="preserve">
<g id="refer" display="none">
</g>
<g id="app">
	<path fill-rule="evenodd" clip-rule="evenodd" fill="#FFFFFF" d="M23.846,10.061c-0.45,2.464-1.992,4.217-3.736,5.864
		c-2.279,2.151-4.52,4.345-6.777,6.521C12.756,23,12.416,23,11.846,22.45c-2.606-2.512-5.231-5.002-7.809-7.541
		c-1.338-1.317-2.359-2.847-2.646-4.767c-0.009-0.063-0.042-0.121-0.064-0.181c0-0.435,0-0.868,0-1.302
		C1.359,8.518,1.4,8.379,1.423,8.234c0.229-1.521,0.896-2.783,2.19-3.66c1.62-1.102,4.549-1.554,6.758-0.034
		c0.766,0.528,1.496,1.11,2.263,1.683c0.199-0.176,0.431-0.391,0.672-0.595c1.643-1.392,3.421-2.308,5.697-1.998
		c2.243,0.305,4.021,1.717,4.595,3.871c0.102,0.381,0.166,0.772,0.248,1.159C23.846,9.127,23.846,9.594,23.846,10.061z
		 M12.571,20.938c0.092-0.076,0.146-0.115,0.192-0.161c2.329-2.243,4.667-4.479,6.98-6.737c0.533-0.522,1.019-1.104,1.458-1.709
		c0.712-0.979,1.134-2.074,1.029-3.314c-0.101-1.216-0.405-2.369-1.504-3.067c-1.372-0.87-2.851-1.072-4.383-0.416
		c-1.204,0.517-2.142,1.392-3.037,2.319c-0.513,0.53-0.913,0.514-1.445,0.009c-0.602-0.574-1.208-1.152-1.869-1.653
		C9.072,5.51,8.042,5.089,6.84,5.172C4.807,5.312,3.561,6.24,3.092,8.025c-0.481,1.842,0.083,3.433,1.26,4.821
		c0.721,0.851,1.532,1.624,2.331,2.403C8.627,17.146,10.589,19.024,12.571,20.938z"/>
</g>
<g id="prop2" display="none">
</g>
</svg>
