<?xml version="1.0" encoding="utf-8"?>
<!-- Generator: Adobe Illustrator 16.0.0, SVG Export Plug-In . SVG Version: 6.00 Build 0)  -->
<!DOCTYPE svg PUBLIC "-//W3C//DTD SVG 1.1//EN" "http://www.w3.org/Graphics/SVG/1.1/DTD/svg11.dtd">
<svg version="1.1" xmlns="http://www.w3.org/2000/svg" xmlns:xlink="http://www.w3.org/1999/xlink" x="0px" y="0px"
	 width="117.384px" height="18.214px" viewBox="0 0 117.384 18.214" enable-background="new 0 0 117.384 18.214"
	 xml:space="preserve">
<g id="refer" display="none">
</g>
<g id="app">
	<g>
		<g>
			<text transform="matrix(1 0 0 1 18.2061 14.9893)" fill="#FFFFFF" font-family="'Andor-PersonalUse'" font-size="18.4532">uimiventas</text>
		</g>
		<g>
			<circle fill="#FFFFFF" cx="9.018" cy="9.061" r="3.907"/>
			<path fill="#FFFFFF" d="M9.019,0.438c-4.738,0-8.581,3.845-8.581,8.584c0,4.299,3.164,7.859,7.287,8.481v-2.249
				c-2.875-0.596-5.031-3.145-5.031-6.193c0-3.496,2.829-6.327,6.328-6.327c3.49,0,6.323,2.831,6.323,6.327
				c0,3.049-2.161,5.598-5.033,6.193v2.249c4.125-0.622,7.286-4.183,7.286-8.481C17.598,4.282,13.757,0.438,9.019,0.438z"/>
		</g>
	</g>
</g>
<g id="prop2" display="none">
</g>
</svg>
