<?xml version="1.0" encoding="utf-8"?>
<!-- Generator: Adobe Illustrator 16.0.0, SVG Export Plug-In . SVG Version: 6.00 Build 0)  -->
<!DOCTYPE svg PUBLIC "-//W3C//DTD SVG 1.1//EN" "http://www.w3.org/Graphics/SVG/1.1/DTD/svg11.dtd">
<svg version="1.1" xmlns="http://www.w3.org/2000/svg" xmlns:xlink="http://www.w3.org/1999/xlink" x="0px" y="0px"
	 width="140.356px" height="22.014px" viewBox="0 0 140.356 22.014" enable-background="new 0 0 140.356 22.014"
	 xml:space="preserve">
<g id="refer" display="none">
</g>
<g id="app">
	<g>
		<g>
			<g>
				<path fill="#FFFFFF" d="M26.191,12.885c0,0.76,0.146,1.365,0.438,1.819c0.293,0.452,0.767,0.679,1.425,0.679
					c0.452,0,0.873-0.106,1.26-0.317c0.387-0.212,0.727-0.457,1.019-0.734c0.292-0.278,0.521-0.548,0.689-0.812
					c0.169-0.262,0.253-0.445,0.253-0.547V7.494h3.616V18.45h-1.426c-0.35,0-0.66-0.019-0.931-0.055
					c-0.271-0.037-0.5-0.117-0.69-0.241c-0.189-0.124-0.332-0.295-0.427-0.515c-0.095-0.219-0.143-0.504-0.143-0.854v-0.613
					c-0.307,0.365-0.618,0.7-0.931,1.008c-0.314,0.307-0.658,0.569-1.03,0.788c-0.373,0.22-0.777,0.388-1.216,0.505
					s-0.921,0.175-1.446,0.175c-0.469,0-0.942-0.076-1.425-0.229c-0.481-0.154-0.92-0.416-1.314-0.79
					c-0.394-0.372-0.717-0.879-0.965-1.522c-0.248-0.643-0.372-1.46-0.372-2.453V7.494h1.446c0.701,0,1.238,0.15,1.61,0.449
					c0.372,0.301,0.56,0.809,0.56,1.523V12.885z"/>
				<path fill="#FFFFFF" d="M35.722,4.625c0-0.438,0.193-0.819,0.581-1.141c0.386-0.32,0.85-0.482,1.392-0.482
					c0.277,0,0.54,0.045,0.788,0.133c0.248,0.087,0.464,0.204,0.646,0.35C39.312,3.631,39.454,3.803,39.557,4
					c0.102,0.196,0.152,0.405,0.152,0.625c0,0.219-0.051,0.426-0.152,0.623c-0.103,0.197-0.245,0.369-0.428,0.516
					c-0.183,0.146-0.398,0.263-0.646,0.351c-0.248,0.087-0.511,0.132-0.788,0.132c-0.542,0-1.006-0.162-1.392-0.482
					C35.915,5.442,35.722,5.063,35.722,4.625z M39.513,18.45h-1.425c-0.599,0-1.114-0.149-1.544-0.448
					c-0.432-0.3-0.647-0.808-0.647-1.524V7.494h1.688c0.584,0,1.052,0.117,1.403,0.351c0.35,0.234,0.525,0.666,0.525,1.293V18.45z"
					/>
				<path fill="#FFFFFF" d="M56.757,12.775c0-0.746-0.184-1.297-0.548-1.654c-0.365-0.357-0.797-0.537-1.293-0.537
					c-0.336,0-0.639,0.065-0.909,0.197s-0.52,0.311-0.745,0.536c-0.227,0.228-0.424,0.482-0.592,0.768
					c-0.168,0.284-0.304,0.58-0.405,0.888v5.478H48.65v-5.675c0-0.746-0.174-1.297-0.516-1.654
					c-0.344-0.357-0.777-0.537-1.305-0.537c-0.336,0-0.646,0.069-0.931,0.209c-0.285,0.139-0.54,0.32-0.767,0.547
					c-0.228,0.228-0.424,0.482-0.592,0.768c-0.168,0.284-0.297,0.572-0.383,0.865v5.478h-3.616V7.494h1.578
					c0.773,0,1.307,0.132,1.6,0.395c0.292,0.264,0.438,0.68,0.438,1.249v0.768c0.175-0.263,0.397-0.549,0.667-0.854
					c0.271-0.308,0.585-0.593,0.943-0.854c0.356-0.264,0.759-0.482,1.204-0.657c0.445-0.176,0.938-0.264,1.48-0.264
					c0.496,0,0.938,0.069,1.325,0.209c0.386,0.138,0.719,0.321,0.996,0.547c0.278,0.227,0.508,0.493,0.69,0.801
					c0.183,0.306,0.325,0.635,0.428,0.985c0.072-0.117,0.23-0.317,0.471-0.604c0.241-0.284,0.559-0.569,0.953-0.854
					c0.395-0.284,0.857-0.537,1.391-0.756c0.534-0.219,1.144-0.328,1.83-0.328c0.556,0,1.067,0.092,1.534,0.273
					c0.468,0.184,0.872,0.461,1.217,0.833c0.342,0.372,0.608,0.837,0.799,1.392s0.285,1.213,0.285,1.973v6.704H58.86
					c-0.774,0-1.318-0.168-1.633-0.504c-0.314-0.335-0.471-0.897-0.471-1.688V12.775z"/>
				<path fill="#FFFFFF" d="M61.183,4.625c0-0.438,0.193-0.819,0.581-1.141c0.386-0.32,0.85-0.482,1.392-0.482
					c0.277,0,0.54,0.045,0.788,0.133c0.248,0.087,0.464,0.204,0.646,0.35C64.772,3.631,64.915,3.803,65.018,4
					c0.102,0.196,0.153,0.405,0.153,0.625c0,0.219-0.052,0.426-0.153,0.623c-0.103,0.197-0.245,0.369-0.428,0.516
					c-0.183,0.146-0.398,0.263-0.646,0.351c-0.248,0.087-0.511,0.132-0.788,0.132c-0.542,0-1.006-0.162-1.392-0.482
					C61.376,5.442,61.183,5.063,61.183,4.625z M64.974,18.45H63.55c-0.6,0-1.114-0.149-1.545-0.448
					c-0.432-0.3-0.647-0.808-0.647-1.524V7.494h1.688c0.584,0,1.052,0.117,1.403,0.351c0.35,0.234,0.525,0.666,0.525,1.293V18.45z"
					/>
				<path fill="#FFFFFF" d="M74.373,18.45h-3.615L65.367,7.494h2.104c0.438,0,0.891,0.121,1.359,0.362
					c0.468,0.241,0.847,0.668,1.139,1.281l2.586,6.136l2.695-6.136c0.276-0.613,0.6-1.04,0.965-1.281
					c0.363-0.241,0.802-0.362,1.313-0.362h2.258L74.373,18.45z"/>
				<path fill="#FFFFFF" d="M82.524,13.958c0.059,0.833,0.366,1.425,0.92,1.775c0.556,0.351,1.337,0.525,2.345,0.525
					c1.009,0,1.805-0.112,2.389-0.339s1.037-0.603,1.359-1.129c0.277,0.146,0.532,0.34,0.767,0.58
					c0.232,0.242,0.35,0.537,0.35,0.888c0,0.396-0.127,0.742-0.383,1.041c-0.256,0.3-0.614,0.552-1.073,0.756
					c-0.461,0.204-1.016,0.362-1.665,0.472c-0.651,0.109-1.37,0.164-2.159,0.164c-1.154,0-2.14-0.106-2.958-0.317
					c-0.817-0.212-1.49-0.549-2.016-1.008c-0.526-0.46-0.909-1.045-1.15-1.753c-0.241-0.709-0.362-1.567-0.362-2.574
					c0-1.01,0.117-1.874,0.351-2.598c0.234-0.723,0.6-1.317,1.096-1.786c0.496-0.468,1.137-0.811,1.918-1.029
					c0.78-0.22,1.72-0.328,2.815-0.328c1.198,0,2.188,0.12,2.969,0.361s1.402,0.58,1.862,1.019c0.46,0.438,0.785,0.975,0.976,1.61
					c0.189,0.636,0.285,1.348,0.285,2.137c0,0.204-0.019,0.468-0.055,0.789c-0.037,0.321-0.069,0.569-0.099,0.744H82.524z
					 M85.395,9.817c-0.409,0-0.777,0.028-1.105,0.088c-0.33,0.058-0.617,0.163-0.865,0.317c-0.25,0.153-0.45,0.365-0.604,0.636
					c-0.152,0.271-0.26,0.617-0.317,1.04h5.544c-0.044-0.423-0.129-0.77-0.253-1.04s-0.296-0.482-0.515-0.636
					c-0.22-0.154-0.486-0.26-0.799-0.317C86.165,9.846,85.804,9.817,85.395,9.817z"/>
				<path fill="#FFFFFF" d="M100.668,12.929c0-0.76-0.154-1.345-0.461-1.753c-0.307-0.409-0.811-0.614-1.512-0.614
					c-0.438,0-0.848,0.106-1.227,0.317c-0.381,0.213-0.709,0.476-0.986,0.79c-0.278,0.314-0.497,0.661-0.657,1.04
					c-0.161,0.381-0.241,0.73-0.241,1.052v4.689h-3.615V7.494h1.424c0.352,0,0.661,0.02,0.931,0.055
					c0.271,0.037,0.497,0.114,0.68,0.23c0.183,0.117,0.325,0.285,0.428,0.504s0.153,0.504,0.153,0.854v0.745
					c0.175-0.307,0.408-0.613,0.701-0.92c0.291-0.308,0.631-0.585,1.019-0.833s0.808-0.448,1.261-0.603
					c0.452-0.153,0.935-0.229,1.445-0.229c0.979,0,1.749,0.175,2.312,0.524c0.563,0.352,0.99,0.813,1.282,1.382
					c0.293,0.569,0.478,1.22,0.559,1.95c0.08,0.73,0.121,1.475,0.121,2.234v5.062h-1.425c-0.7,0-1.242-0.146-1.621-0.438
					c-0.381-0.292-0.569-0.767-0.569-1.424V12.929z"/>
				<path fill="#FFFFFF" d="M108.73,7.494h3.33v2.586h-3.33v3.418c0,0.774,0.197,1.374,0.591,1.797
					c0.395,0.424,0.906,0.636,1.534,0.636c0.307,0,0.56-0.055,0.756-0.165c0.197-0.108,0.357-0.236,0.481-0.383
					c0.124-0.146,0.213-0.299,0.264-0.46s0.092-0.292,0.12-0.395c0.059,0.029,0.14,0.091,0.241,0.186
					c0.103,0.096,0.204,0.223,0.308,0.384c0.101,0.161,0.189,0.347,0.262,0.56c0.073,0.212,0.11,0.441,0.11,0.689
					c0,0.337-0.076,0.643-0.23,0.921c-0.153,0.277-0.372,0.519-0.657,0.723c-0.284,0.205-0.624,0.365-1.019,0.482
					s-0.825,0.175-1.293,0.175c-0.745,0-1.432-0.092-2.06-0.273c-0.628-0.184-1.165-0.479-1.61-0.888
					c-0.446-0.409-0.793-0.932-1.041-1.566c-0.249-0.635-0.373-1.406-0.373-2.313V3.112h1.973c0.189,0,0.383,0.029,0.58,0.089
					c0.197,0.059,0.373,0.153,0.526,0.286c0.153,0.132,0.28,0.304,0.384,0.517c0.103,0.214,0.153,0.467,0.153,0.76V7.494z"/>
				<path fill="#FFFFFF" d="M126.37,18.45c-0.425,0.014-0.838,0.014-1.238,0c-0.401-0.014-0.764-0.073-1.085-0.175
					c-0.321-0.103-0.577-0.26-0.768-0.471c-0.188-0.213-0.284-0.516-0.284-0.91c-0.307,0.468-0.821,0.885-1.544,1.248
					c-0.724,0.365-1.619,0.549-2.685,0.549c-0.687,0-1.33-0.102-1.929-0.307c-0.6-0.205-1.117-0.529-1.556-0.976
					c-0.438-0.445-0.782-1.019-1.03-1.72s-0.372-1.548-0.372-2.542c0-1.096,0.128-2.005,0.384-2.728
					c0.255-0.724,0.605-1.305,1.052-1.742c0.445-0.438,0.964-0.748,1.555-0.932c0.593-0.182,1.224-0.273,1.896-0.273
					c0.643,0,1.205,0.076,1.687,0.229c0.482,0.154,0.891,0.348,1.228,0.581c0.336,0.234,0.613,0.497,0.832,0.788
					c0.22,0.294,0.388,0.571,0.505,0.834c-0.088-0.468-0.099-0.858-0.033-1.172c0.065-0.314,0.183-0.566,0.351-0.757
					c0.167-0.189,0.372-0.32,0.613-0.394s0.485-0.11,0.734-0.11l1.688,0.021V18.45z M120.146,10.321c-0.92,0-1.592,0.22-2.016,0.656
					c-0.424,0.438-0.635,1.214-0.635,2.323c0,0.614,0.051,1.117,0.152,1.512c0.103,0.395,0.264,0.709,0.482,0.943
					c0.22,0.232,0.496,0.397,0.833,0.492c0.336,0.096,0.73,0.143,1.183,0.143c0.556,0,1.001-0.099,1.337-0.295
					c0.336-0.197,0.595-0.445,0.778-0.746c0.182-0.299,0.303-0.627,0.361-0.985s0.087-0.705,0.087-1.042v-0.219
					c0-0.875-0.197-1.559-0.591-2.048C121.725,10.566,121.067,10.321,120.146,10.321z"/>
				<path fill="#FFFFFF" d="M135.33,15.339c0-0.307-0.197-0.511-0.592-0.613c-0.394-0.102-0.887-0.179-1.479-0.23
					c-0.592-0.051-1.231-0.105-1.918-0.164s-1.325-0.193-1.916-0.405c-0.592-0.213-1.085-0.529-1.48-0.953
					c-0.394-0.424-0.591-1.023-0.591-1.797c0-0.686,0.168-1.273,0.504-1.765c0.335-0.489,0.789-0.891,1.358-1.204
					c0.57-0.314,1.228-0.544,1.973-0.69c0.744-0.146,1.525-0.219,2.345-0.219c0.232,0,0.533,0.01,0.898,0.032
					c0.364,0.021,0.748,0.063,1.15,0.12c0.401,0.06,0.807,0.146,1.215,0.264c0.409,0.117,0.778,0.271,1.107,0.46
					c0.328,0.19,0.595,0.42,0.799,0.69c0.205,0.271,0.308,0.588,0.308,0.953c0,0.38-0.136,0.705-0.406,0.976
					c-0.27,0.27-0.602,0.508-0.996,0.711c0.029-0.263-0.052-0.511-0.241-0.745c-0.189-0.233-0.449-0.431-0.777-0.592
					c-0.33-0.159-0.705-0.287-1.129-0.382c-0.424-0.096-0.841-0.143-1.249-0.143c-0.876,0-1.566,0.113-2.07,0.34
					c-0.505,0.226-0.756,0.536-0.756,0.931c0,0.306,0.193,0.512,0.58,0.613c0.387,0.103,0.877,0.179,1.469,0.229
					c0.591,0.053,1.227,0.106,1.906,0.165c0.68,0.058,1.314,0.187,1.906,0.384c0.591,0.197,1.08,0.496,1.468,0.897
					c0.386,0.402,0.581,0.976,0.581,1.721c0,0.687-0.18,1.271-0.537,1.752c-0.358,0.482-0.832,0.877-1.425,1.185
					c-0.592,0.306-1.268,0.529-2.027,0.668c-0.759,0.139-1.548,0.208-2.365,0.208c-0.263,0-0.589-0.005-0.976-0.012
					s-0.793-0.036-1.216-0.087c-0.424-0.052-0.852-0.132-1.281-0.241c-0.432-0.11-0.815-0.255-1.15-0.438
					c-0.337-0.183-0.611-0.416-0.822-0.701c-0.212-0.284-0.317-0.632-0.317-1.04c0-0.248,0.065-0.54,0.196-0.877
					c0.132-0.336,0.381-0.642,0.746-0.921c0.102,0.351,0.313,0.651,0.636,0.899c0.319,0.248,0.689,0.448,1.105,0.603
					c0.417,0.153,0.844,0.267,1.281,0.339c0.438,0.074,0.833,0.11,1.185,0.11c0.248,0,0.544-0.012,0.887-0.033
					c0.344-0.021,0.672-0.065,0.985-0.132c0.314-0.066,0.581-0.168,0.801-0.306C135.221,15.759,135.33,15.572,135.33,15.339z"/>
			</g>
		</g>
		<g>
			<circle fill="#FFFFFF" cx="11.249" cy="11.41" r="4.64"/>
			<path fill="#FFFFFF" d="M11.25,1.172c-5.627,0-10.189,4.564-10.189,10.192c0,5.104,3.757,9.332,8.652,10.071v-2.671
				C6.3,18.058,3.739,15.031,3.739,11.41c0-4.151,3.359-7.513,7.514-7.513c4.145,0,7.509,3.361,7.509,7.513
				c0,3.621-2.566,6.647-5.977,7.354v2.671c4.898-0.739,8.651-4.967,8.651-10.071C21.437,5.736,16.876,1.172,11.25,1.172z"/>
		</g>
	</g>
</g>
<g id="prop2" display="none">
</g>
</svg>
