<?xml version="1.0" encoding="utf-8"?>
<!-- Generator: Adobe Illustrator 16.0.0, SVG Export Plug-In . SVG Version: 6.00 Build 0)  -->
<!DOCTYPE svg PUBLIC "-//W3C//DTD SVG 1.1//EN" "http://www.w3.org/Graphics/SVG/1.1/DTD/svg11.dtd">
<svg version="1.1" xmlns="http://www.w3.org/2000/svg" xmlns:xlink="http://www.w3.org/1999/xlink" x="0px" y="0px"
	 width="23.333px" height="23.769px" viewBox="0 0 23.333 23.769" enable-background="new 0 0 23.333 23.769" xml:space="preserve">
<g id="refer" display="none">
</g>
<g id="app">
	<g>
		<g>
			<path fill-rule="evenodd" clip-rule="evenodd" fill="#63C282" d="M11.716,21.231c-2.568,0-5.137,0.004-7.705-0.002
				c-0.605-0.002-1.118-0.402-1.313-0.99c-0.061-0.184-0.074-0.393-0.053-0.596c0.028-0.285-0.014-0.572-0.013-0.857
				c0.003-2.432-0.003-4.863,0.006-7.295c0.002-0.684-0.011-1.367-0.006-2.051c0.003-0.463,0.108-0.889,0.46-1.215
				c0.176-0.16,0.391-0.27,0.628-0.313c0.46-0.084,0.926-0.049,1.389-0.049c4.264-0.002,8.528,0,12.791,0
				c0.426,0,0.853-0.002,1.278,0.002c0.358,0.002,0.709,0.049,1.008,0.266c0.266,0.193,0.438,0.455,0.537,0.77
				c0.07,0.225,0.053,0.453,0.053,0.682c0.002,3.379,0.004,6.756-0.002,10.135c0,0.424-0.097,0.826-0.437,1.129
				c-0.276,0.244-0.592,0.385-0.962,0.385c-1.247,0-2.494,0-3.739,0C14.329,21.231,13.021,21.231,11.716,21.231L11.716,21.231z
				 M7.009,14.372c-0.002,0.021-0.004,0.045,0.027,0.047c0.113,0.209,0.286,0.357,0.481,0.486c0.077,0.072,0.175,0.109,0.273,0.145
				c0.011,0.029,0.042,0.037,0.067,0.045c0.433,0.121,0.868,0.174,1.313,0.066c0.317-0.076,0.611-0.203,0.846-0.428
				c0.245-0.236,0.409-0.523,0.504-0.857c0.09-0.32,0.185-0.639,0.191-0.971c0.01-0.516,0.035-1.029-0.1-1.539
				c-0.092-0.352-0.212-0.686-0.432-0.965C9.86,9.989,9.415,9.766,8.896,9.715c-0.341-0.031-0.68,0-1.009,0.104
				c-0.462,0.143-0.774,0.463-0.983,0.875c-0.242,0.475-0.322,0.996-0.342,1.523c-0.016,0.445,0.012,0.889,0.112,1.322
				c0.037,0.16,0.062,0.328,0.161,0.469c0.019,0.131,0.09,0.236,0.165,0.34C7,14.356,7.003,14.364,7.009,14.372z M14.202,10.997
				c0.162-0.031,0.117-0.184,0.162-0.281c0.148-0.246,0.281-0.5,0.417-0.752c0.065-0.121,0.017-0.121-0.077-0.121
				c-0.326,0-0.652,0.01-0.979-0.006c-0.214-0.008-0.345,0.027-0.461,0.252c-0.258,0.494-0.533,0.98-0.82,1.461
				c-0.128,0.213-0.243,0.439-0.359,0.662c-0.301,0.57-0.632,1.123-0.949,1.684c-0.197,0.346-0.363,0.711-0.566,1.057
				c-0.253,0.434-0.486,0.877-0.73,1.314c-0.239,0.428-0.454,0.869-0.717,1.283c-0.184,0.293-0.34,0.604-0.495,0.912
				c-0.068,0.135-0.073,0.133,0.079,0.133c0.374,0,0.749-0.006,1.124,0.002c0.13,0.004,0.203-0.039,0.26-0.154
				c0.311-0.633,0.689-1.23,1.011-1.857c0.122-0.24,0.28-0.463,0.402-0.707c0.123-0.242,0.264-0.477,0.397-0.717
				c0.097-0.117,0.197-0.234,0.217-0.396c0.157-0.283,0.313-0.566,0.469-0.848c0.156-0.281,0.31-0.561,0.465-0.84
				c0.171-0.301,0.347-0.6,0.516-0.902c0.146-0.258,0.294-0.514,0.429-0.777C14.063,11.262,14.172,11.151,14.202,10.997z
				 M16.619,14.456c-0.037-0.074,0.063-0.203-0.104-0.236c-0.029-0.008-0.09-0.131-0.119-0.209c-0.083-0.238-0.305-0.334-0.479-0.48
				c-0.006-0.006-0.019-0.002-0.027-0.002c-0.117-0.121-0.272-0.174-0.426-0.223c-0.364-0.115-0.74-0.094-1.11-0.059
				c-0.346,0.033-0.659,0.184-0.927,0.393c-0.168,0.135-0.296,0.332-0.395,0.529c-0.217,0.438-0.299,0.908-0.328,1.393
				c-0.047,0.715,0.011,1.414,0.317,2.074c0.149,0.322,0.361,0.598,0.676,0.789c0.402,0.246,0.84,0.311,1.299,0.271
				c0.399-0.033,0.765-0.158,1.073-0.426c0.271-0.23,0.46-0.512,0.568-0.852c0.104-0.324,0.203-0.652,0.205-0.996
				c0.004-0.43,0.029-0.861-0.045-1.289C16.758,14.901,16.667,14.686,16.619,14.456z"/>
			<path fill-rule="evenodd" clip-rule="evenodd" fill="#63C282" d="M14.396,7.227c-0.322,0.072-0.644,0.145-0.965,0.219
				c-0.157,0.035-0.256-0.047-0.337-0.24c-0.046-0.109,0.03-0.246,0.151-0.295c0.314-0.129,0.611-0.293,0.901-0.469
				c0.213-0.119,0.417-0.254,0.612-0.4c0.062-0.045,0.084-0.119,0.147-0.172c0.101-0.084,0.224-0.17,0.261-0.316l0.002-0.002
				c0.083,0.004,0.096-0.057,0.105-0.117c0.088-0.156,0.17-0.316,0.105-0.504c-0.063-0.184-0.202-0.27-0.387-0.297
				c-0.254-0.037-0.494,0.025-0.721,0.123c-0.729,0.313-1.297,0.828-1.772,1.455c-0.149,0.193-0.236,0.219-0.409,0.111
				c-0.152-0.096-0.186-0.271-0.079-0.457c0.266-0.463,0.548-0.916,0.867-1.35c0.347-0.469,0.726-0.9,1.153-1.291
				c0.377-0.344,0.791-0.643,1.277-0.813c0.404-0.143,0.829-0.217,1.252-0.117c0.52,0.121,0.929,0.412,1.143,0.918
				c0.281,0.666,0.199,1.309-0.146,1.939c-0.141,0.256-0.327,0.471-0.512,0.686c-0.085,0.1-0.204,0.186-0.313,0.268
				c-0.037,0-0.055,0.02-0.057,0.055l0,0C16.622,6.163,16.585,6.2,16.54,6.225c-0.209,0.115-0.367,0.309-0.604,0.383
				c-0.028,0.008-0.048,0.023-0.048,0.059l0,0c-0.117,0.023-0.2,0.119-0.315,0.146c-0.009,0.002-0.016,0.006-0.02,0.014
				c-0.014-0.01-0.022-0.002-0.028,0.008c-0.228,0.107-0.481,0.139-0.699,0.268C14.683,7.143,14.538,7.186,14.396,7.227z"/>
			<path fill-rule="evenodd" clip-rule="evenodd" fill="#63C282" d="M8.298,5.657c0.313,0.402,0.746,0.65,1.168,0.91
				c0.21,0.129,0.442,0.215,0.661,0.324c0.175,0.088,0.243,0.203,0.187,0.361c-0.059,0.166-0.203,0.227-0.386,0.18
				c-0.202-0.053-0.407-0.09-0.611-0.137c-0.413-0.09-0.813-0.225-1.211-0.367C7.748,6.797,7.411,6.622,7.099,6.417
				C6.755,6.188,6.434,5.918,6.163,5.59C5.915,5.29,5.756,4.952,5.635,4.594c-0.11-0.322-0.12-0.66-0.045-1.004
				C5.687,3.157,5.9,2.809,6.264,2.555c0.142-0.098,0.292-0.178,0.458-0.223C6.848,2.336,6.961,2.268,7.09,2.278
				C7.268,2.29,7.446,2.282,7.624,2.282C8.004,2.352,8.353,2.5,8.681,2.7c0.466,0.283,0.882,0.623,1.24,1.033
				c0.291,0.33,0.565,0.674,0.813,1.039c0.245,0.365,0.463,0.744,0.688,1.119c0.121,0.205-0.012,0.465-0.251,0.49
				c-0.074,0.008-0.133-0.021-0.181-0.082c-0.243-0.311-0.494-0.615-0.792-0.877c-0.39-0.342-0.807-0.645-1.323-0.768
				c-0.04-0.01-0.084-0.008-0.125-0.012C8.528,4.51,8.219,4.641,8.094,4.762c-0.05,0.049-0.116,0.125-0.079,0.219
				c0,0.029,0,0.057,0,0.086C8.008,5.311,8.098,5.512,8.298,5.657z"/>
			<path fill-rule="evenodd" clip-rule="evenodd" fill="#63C282" d="M11.733,7.563c-0.295,0-0.59-0.004-0.883,0.002
				c-0.105,0.002-0.142-0.029-0.138-0.135c0.024-0.545,0.513-1.004,1.132-0.949c0.458,0.041,0.904,0.496,0.9,0.961
				c0,0.094-0.021,0.125-0.113,0.123C12.331,7.561,12.032,7.563,11.733,7.563z"/>
			<path fill-rule="evenodd" clip-rule="evenodd" fill="#63C282" d="M9.201,12.452c0.019,0.381-0.008,0.758-0.122,1.123
				c-0.06,0.197-0.252,0.436-0.484,0.4c-0.096-0.016-0.17-0.059-0.229-0.121c-0.118-0.127-0.197-0.283-0.225-0.457
				c-0.071-0.443-0.089-0.893-0.057-1.34c0.02-0.281,0.037-0.568,0.174-0.828c0.084-0.158,0.203-0.254,0.387-0.25
				c0.188,0.004,0.311,0.1,0.384,0.271c0.14,0.326,0.184,0.668,0.172,1.02C9.199,12.331,9.201,12.391,9.201,12.452z"/>
			<path fill-rule="evenodd" clip-rule="evenodd" fill="#63C282" d="M14.202,15.694c0.008-0.324,0.045-0.643,0.174-0.943
				c0.111-0.264,0.42-0.369,0.631-0.201c0.134,0.107,0.223,0.268,0.254,0.434c0.091,0.49,0.084,0.986,0.062,1.482
				c-0.012,0.24-0.05,0.48-0.155,0.703c-0.112,0.234-0.261,0.32-0.486,0.293c-0.149-0.018-0.303-0.209-0.357-0.404
				c-0.074-0.271-0.114-0.549-0.121-0.83C14.202,16.049,14.202,15.872,14.202,15.694z"/>
		</g>
	</g>
</g>
<g id="prop2" display="none">
</g>
</svg>
